$MeshFormat
2.2 0 8
$EndMeshFormat
$Nodes
842
1 0 0 0
2 4.5 0 0
3 9 0 0
4 0 2 0
5 4.5 2 0
6 9 2 0
7 0 1.833333333332639 0
8 0 1.666666666666203 0
9 0 1.500000000000693 0
10 0 1.333333333335182 0
11 0 1.166666666669671 0
12 0 1.000000000004118 0
13 0 0.8333333333367996 0
14 0 0.6666666666694385 0
15 0 0.5000000000020786 0
16 0 0.333333333334719 0
17 0 0.1666666666673595 0
18 4.5 0.166666666666347 0
19 4.5 0.3333333333326438 0
20 4.5 0.499999999998825 0
21 4.5 0.6666666666650062 0
22 4.5 0.8333333333311868 0
23 4.5 0.999999999997389 0
24 4.5 1.166666666664474 0
25 4.5 1.33333333333158 0
26 4.5 1.499999999998685 0
27 4.5 1.66666666666579 0
28 4.5 1.833333333332895 0
29 9 1.833333333332639 0
30 9 1.666666666666203 0
31 9 1.500000000000693 0
32 9 1.333333333335182 0
33 9 1.166666666669671 0
34 9 1.000000000004118 0
35 9 0.8333333333367996 0
36 9 0.6666666666694385 0
37 9 0.5000000000020786 0
38 9 0.333333333334719 0
39 9 0.1666666666673595 0
40 0.16666666666625 0 0
41 0.3333333333325114 0 0
42 0.4999999999989127 0 0
43 0.6666666666650571 0 0
44 0.8333333333310473 0 0
45 0.9999999999970378 0 0
46 1.166666666663028 0 0
47 1.333333333329018 0 0
48 1.499999999995009 0 0
49 1.666666666660999 0 0
50 1.83333333332699 0 0
51 1.99999999999298 0 0
52 2.16666666665897 0 0
53 2.333333333325783 0 0
54 2.499999999993419 0 0
55 2.666666666661054 0 0
56 2.833333333328688 0 0
57 2.999999999996322 0 0
58 3.166666666663956 0 0
59 3.33333333333159 0 0
60 3.499999999999224 0 0
61 3.666666666666858 0 0
62 3.833333333334491 0 0
63 4.00000000000199 0 0
64 4.16666666666802 0 0
65 4.33333333333401 0 0
66 8.833333333333334 0 0
67 8.666666666666668 0 0
68 8.5 0 0
69 8.333333333333334 0 0
70 8.166666666666666 0 0
71 8 0 0
72 7.833333333333334 0 0
73 7.666666666666667 0 0
74 7.5 0 0
75 7.333333333333333 0 0
76 7.166666666666666 0 0
77 7 0 0
78 6.833333333333334 0 0
79 6.666666666666667 0 0
80 6.5 0 0
81 6.333333333333333 0 0
82 6.166666666666666 0 0
83 6 0 0
84 5.833333333333333 0 0
85 5.666666666666666 0 0
86 5.5 0 0
87 5.333333333333333 0 0
88 5.166666666666666 0 0
89 5 0 0
90 4.833333333333333 0 0
91 4.666666666666667 0 0
92 4.333333333333969 2 0
93 4.166666666667938 2 0
94 4.000000000001908 2 0
95 3.833333333335876 2 0
96 3.666666666669845 2 0
97 3.500000000003815 2 0
98 3.333333333337783 2 0
99 3.166666666671753 2 0
100 3.000000000005722 2 0
101 2.833333333339691 2 0
102 2.66666666667366 2 0
103 2.500000000007629 2 0
104 2.333333333341598 2 0
105 2.166666666674745 2 0
106 2.000000000007068 2 0
107 1.833333333339393 2 0
108 1.666666666671718 2 0
109 1.500000000004043 2 0
110 1.333333333336368 2 0
111 1.166666666668694 2 0
112 1.00000000000102 2 0
113 0.833333333333345 2 0
114 0.6666666666656709 2 0
115 0.4999999999981313 2 0
116 0.3333333333320612 2 0
117 0.166666666666031 2 0
118 4.666666666666667 2 0
119 4.833333333333333 2 0
120 5 2 0
121 5.166666666666666 2 0
122 5.333333333333333 2 0
123 5.5 2 0
124 5.666666666666666 2 0
125 5.833333333333333 2 0
126 6 2 0
127 6.166666666666667 2 0
128 6.333333333333334 2 0
129 6.5 2 0
130 6.666666666666666 2 0
131 6.833333333333333 2 0
132 7 2 0
133 7.166666666666667 2 0
134 7.333333333333334 2 0
135 7.5 2 0
136 7.666666666666667 2 0
137 7.833333333333334 2 0
138 8 2 0
139 8.166666666666668 2 0
140 8.333333333333334 2 0
141 8.5 2 0
142 8.666666666666668 2 0
143 8.833333333333332 2 0
144 1.083333333330033 0.1443375672968207 0
145 3.416666666669885 1.855662432702498 0
146 1.749999999993995 0.1443375672968206 0
147 2.750000000006675 1.855662432703144 0
148 2.416666666659602 0.144337567297889 0
149 3.084361955539348 0.1399958548811555 0
150 1.416666666670571 1.855662432700871 0
151 2.083333333340942 1.855662432702149 0
152 0.1575382355005118 1.102122096271011 0
153 4.355662432703006 0.9166666666642879 0
154 0.9166666666671826 1.855662432701721 0
155 3.582304711123871 0.1399958548809144 0
156 0.1443375672979293 0.5833333333357114 0
157 4.351811659125024 1.418850256018664 0
158 0.5671908555968664 0.1536361268912652 0
159 3.916666666667841 1.855662432701737 0
160 0.5833333333318923 1.855662432702521 0
161 3.91810673776064 0.1435061418645415 0
162 1.750000000005733 1.855662432701725 0
163 2.749999999994872 0.1443375672982442 0
164 3.083333333338354 1.855662432703163 0
165 2.416666666674772 1.855662432702447 0
166 2.083333333325975 0.1443375672968207 0
167 1.416666666662014 0.1443375672968206 0
168 4.332014551346298 0.5725691627789021 0
169 0.1510990140703513 1.419230837014924 0
170 0.1509495412396016 1.734695730156819 0
171 4.337412607265164 0.2710966704280611 0
172 4.349050458759955 1.734695730156173 0
173 0.1406160507363453 0.2564458557669982 0
174 0.4180288362674233 1.856448881689067 0
175 0.5002270282656076 1.711455940236383 0
176 0.6667045047096249 1.711346711210472 0
177 0.5833774777170897 1.567012784880718 0
178 0.7500136637367026 1.566995186870949 0
179 0.666676301352327 1.422655293399887 0
180 0.8333372164026166 1.422651972702591 0
181 0.7500022529580304 1.278313464260065 0
182 0.9166676893367156 1.278312753952915 0
183 0.8333338792701604 1.133974911413539 0
184 1.000000261433217 1.133974747155254 0
185 0.9166668012270406 0.9896371066079591 0
186 1.083333399330882 0.98963706702314 0
187 1.166666721237168 1.133974627722963 0
188 1.250000020093204 0.9896370405202266 0
189 1.33333334577597 1.133974603400365 0
190 1.41666667208784 0.989637032049195 0
191 1.500000002976019 1.133974597934712 0
192 1.583333334731381 0.9896370297263429 0
193 1.666666667394479 1.133974596635922 0
194 1.75000000035293 0.9896370291226219 0
195 1.833333333512386 1.133974596318769 0
196 1.916666666754221 0.9896370289689528 0
197 2.000000000043516 1.133974596240272 0
198 2.083333333354215 0.9896370289301607 0
199 2.166666666673425 1.133974596218991 0
200 2.250000000003775 0.9896370289200593 0
201 2.333333333333622 1.133974596215203 0
202 2.416666666666622 0.9896370289176548 0
203 2.499999999999964 1.133974596214476 0
204 2.583333333332694 0.989637028917044 0
205 2.666666666666482 1.133974596214193 0
206 2.749999999999174 0.9896370289168319 0
207 2.833333333333176 1.133974596214004 0
208 2.916666666666043 0.9896370289168873 0
209 2.99999999999949 1.133974596214116 0
210 3.083333333332758 0.9896370289169277 0
211 3.166666666666298 1.133974596214189 0
212 3.249999999999525 0.9896370289165921 0
213 3.333333333333019 1.13397459621386 0
214 3.416666666666284 0.9896370289162861 0
215 3.499999999999754 1.133974596213662 0
216 3.583333333333028 0.9896370289161261 0
217 3.333333333332724 0.8452994616192079 0
218 3.666666666666485 1.133974596213512 0
219 0.7500001134149852 0.9896370943997593 0
220 0.8333333440899227 0.8452994678325872 0
221 1.166666681013423 0.8452994699054296 0
222 1.500000001134469 0.8452994622773111 0
223 1.833333333404637 0.8452994616630511 0
224 2.166666666668875 0.8452994616223708 0
225 2.499999999998636 0.8452994616198821 0
226 2.833333333332226 0.8452994616198903 0
227 3.749999999999737 0.9896370289159966 0
228 3.666666666666369 0.8452994616186906 0
229 3.583333333333295 1.278312163511051 0
230 3.749999999999963 1.278312163510871 0
231 1.000000817622139 1.422650202865426 0
232 3.249999999999988 1.278312163511588 0
233 2.916666666668265 1.27831216351233 0
234 2.583333333336892 1.278312163511941 0
235 1.583333333950808 1.278312163867619 0
236 2.249999999998979 1.27831216351237 0
237 1.916666666705184 1.278312163532406 0
238 3.833333333332976 0.8452994616185039 0
239 3.749999999999602 0.7009618943212037 0
240 0.6666666873607401 0.8452994735701067 0
241 0.7500000052404834 0.7009618973506671 0
242 3.666666666666832 1.422649730808381 0
243 3.833333333333411 1.422649730808203 0
244 3.916666666666642 1.278312163510702 0
245 0.5833353146062392 1.278313307402675 0
246 3.916666666666208 0.7009618943209917 0
247 0.5860416391164454 0.7025255353979878 0
248 0.5135109910817579 0.854520502489451 0
249 0.6671180518360315 0.5568849343769 0
250 0.8334085650668165 0.5566677620895153 0
251 3.833333333332719 0.5583526642990577 0
252 3.666666666665987 0.5569123832366574 0
253 3.999999999999473 0.5575988051927729 0
254 0.512209512835399 0.5636734925500823 0
255 4.000000000000086 1.422649730808073 0
256 3.999999999999599 0.8452994616183132 0
257 4.084448323236284 1.27831216351054 0
258 3.750000000000214 1.566987298105612 0
259 3.583333333333748 1.566987298105809 0
260 1.250000011167638 1.278312169960851 0
261 0.750087769482471 0.4140657707400455 0
262 3.751028622208632 0.4168685189871518 0
263 0.916693833534346 0.4143188380167019 0
264 1.000017066431813 0.5569702459182821 0
265 1.083335252379279 0.4132894231990897 0
266 1.166669830911 0.5568490907534058 0
267 1.250000220534128 0.4132392000909541 0
268 1.333333897460881 0.5568205277078658 0
269 1.416666700705735 0.4132357819771664 0
270 1.500000099692024 0.5568151975145419 0
271 1.583333339131653 0.413235402434398 0
272 1.666666684245787 0.5568142458918354 0
273 1.750000001010368 0.4132353446821006 0
274 1.833333336428837 0.5568140776625606 0
275 1.916666666840722 0.4132353348778528 0
276 2.000000000542115 0.5568140479900753 0
277 2.083333333360188 0.4132353331650431 0
278 2.1666666667587 0.5568140427591035 0
279 2.250000000000969 0.4132353328636867 0
280 2.333333333346137 0.5568140418369749 0
281 2.416666666663271 0.4132353328105076 0
282 2.499999999999464 0.5568140416746076 0
283 2.583333333329538 0.4132353328011059 0
284 2.666666666664439 0.5568140416461408 0
285 2.749999999996548 0.4132353327994019 0
286 2.833333333330844 0.5568140416408797 0
287 2.916666666663607 0.4132353327989673 0
288 2.99999999999748 0.5568140416399582 0
289 3.084773404423498 0.415035061622397 0
290 3.16690667851335 0.5571139964437221 0
291 3.251720084914245 0.4136578470463376 0
292 3.33366001612604 0.5569344531480904 0
293 3.415567723524163 0.4133983874007425 0
294 0.416711862107434 1.567013391708677 0
295 3.666666666667393 1.711324865403523 0
296 4.000185831650352 1.133974596213155 0
297 4.165142679682445 1.134999189613389 0
298 3.08333333333091 0.7009618943236868 0
299 0.8333524893901929 0.2772868450533896 0
300 3.333436856960738 0.2734778019659004 0
301 4.171047209185502 1.422016485009753 0
302 4.084063423753333 1.566881757139352 0
303 4.251832320107463 1.572850404509843 0
304 4.168351086390736 1.716966052755808 0
305 4.249464342123006 1.272897877153376 0
306 4.339604342937278 1.11306184722637 0
307 3.833333333333541 1.711324865402782 0
308 3.75000000000169 1.855662432701979 0
309 4.082211175581328 0.1434125474053664 0
310 4.000388654897506 0.2874836220513156 0
311 4.160818898415302 0.2824948324170606 0
312 3.500000000000971 1.711324865403503 0
313 3.416666666667378 1.566987298106115 0
314 3.33333333333534 1.711324865404199 0
315 3.250000000001712 1.566987298106801 0
316 3.751508645907228 0.1409167903756763 0
317 3.333333333333936 1.42264973080905 0
318 4.00040241835784 1.712247473134729 0
319 2.583333333327376 0.1443375672981652 0
320 0.5000043799352258 1.422652259568285 0
321 0.416667726867163 1.278312775621365 0
322 0.5019938494317867 1.135125745723293 0
323 0.3385032158733591 1.12660825531905 0
324 0.2516426323266071 1.266487282506643 0
325 0.2788500522507991 0.9704122948473696 0
326 0.331020935884318 1.42011397408801 0
327 0.2491266972466444 1.572618688617829 0
328 0.332202830456386 1.717102293171695 0
329 0.1437173145376324 0.4177409759627293 0
330 0.2864915373957114 0.3345866941782108 0
331 0.2712564892314752 0.1535266449604618 0
332 0.4186370251253436 0.2443667983589584 0
333 0.2778448551865907 0.5003879450249415 0
334 0.2824429793564271 0.6620099821551264 0
335 0.1395062232203771 0.7466415058010061 0
336 1.91666666667337 1.85566243270189 0
337 2.000000000007323 1.711324865403992 0
338 2.166666666674674 1.711324865404326 0
339 2.083333333341236 1.566987298106813 0
340 2.250000000008366 1.566987298107172 0
341 1.91666666667328 1.566987298106246 0
342 2.000000000010619 1.422649730812669 0
343 2.333333333341693 1.711324865404646 0
344 2.41666666667532 1.566987298107344 0
345 2.333333333339211 1.422649730810294 0
346 2.50000000000832 1.711324865404802 0
347 2.583333333342048 1.566987298107572 0
348 2.666666666674887 1.711324865404837 0
349 2.750000000008596 1.566987298107632 0
350 2.666666666673381 1.422649730810316 0
351 2.833333333340486 1.711324865405874 0
352 2.916666666673159 1.56698729810927 0
353 1.833333333339759 1.711324865403762 0
354 1.666666666672397 1.711324865403241 0
355 1.750000000005807 1.566987298105815 0
356 1.583333333337711 1.566987298104849 0
357 1.500000000004792 1.711324865402505 0
358 1.416666666669046 1.5669872981041 0
359 1.333333333337527 1.711324865401564 0
360 1.250000000002733 1.566987298104004 0
361 1.166666666668981 1.711324865402228 0
362 1.66666666677126 1.422649730867156 0
363 1.583333333338209 1.85566243270139 0
364 0.6669997905020761 1.134166925353033 0
365 2.916754134537624 0.1422059640173479 0
366 3.166666666669818 1.711324865405198 0
367 4.079394948387397 0.6988504797406858 0
368 4.190353377860262 0.8411103665149252 0
369 4.156808860069984 0.5616157762703441 0
370 1.083335743453508 0.7010298337169453 0
371 3.166666666668617 1.422649730810147 0
372 3.083333333333565 1.278312163512537 0
373 4.083333333333043 0.989637028915491 0
374 1.083333333334905 1.855662432701245 0
375 0.9999999999999891 1.711324865404139 0
376 1.250000000002841 1.855662432700984 0
377 1.41666666666337 0.7009618943236019 0
378 3.916855418129737 1.567123475899792 0
379 3.499999999998753 0.5566243270256227 0
380 0.5943831004464994 0.4209582068375423 0
381 3.416666666666723 1.278312163511319 0
382 1.74999999999609 0.7009618943235778 0
383 0.5850217537389837 0.9906981160172079 0
384 2.000000000028939 0.8452994616382379 0
385 3.499999999999647 0.8452994616190611 0
386 3.916697638608146 0.9896370289158037 0
387 2.249999999992789 0.1443375672977728 0
388 3.581881542084443 0.4158422541983409 0
389 1.000000439296539 0.8453108065683079 0
390 3.833369467265221 1.13397459621334 0
391 4.377833559127322 0.4215413433938462 0
392 2.333333333332739 0.8452994616207082 0
393 4.350733342039424 0.7529441874374481 0
394 3.250000000003822 1.85566243270251 0
395 2.916666666672643 1.855662432703564 0
396 2.58333333334099 1.855662432702538 0
397 1.916666666659985 0.1443375672968207 0
398 1.249999999996023 0.1443375672968205 0
399 1.583333333328004 0.1443375672968209 0
400 0.9166825272631804 0.7010400022460508 0
401 4.082318970079114 1.857542847535684 0
402 2.666666666665632 0.8452994616198761 0
403 3.500000000000318 1.422649730808621 0
404 2.25000000000807 1.855662432702261 0
405 1.083333694576954 1.278312372077891 0
406 1.416666668317541 1.278312164466329 0
407 1.250000373712473 0.7009915901499959 0
408 0.8333419169627991 1.711329821166266 0
409 1.333333402450796 0.84530441487096 0
410 0.9166711580093891 1.566989891185947 0
411 0.7500077369450857 1.855666899630163 0
412 1.583333333329713 0.7009618943230498 0
413 1.166666865005516 1.422649845320106 0
414 3.166666666665645 0.8452994616199453 0
415 1.666666667158203 0.8452994619059924 0
416 3.583333333332742 0.7010099036906073 0
417 3.250094449105794 0.7010951935795102 0
418 1.916666666662551 0.7009618943225455 0
419 3.41673685531595 0.7010438001136832 0
420 2.083333333329135 0.7009618943223475 0
421 3.583333333335599 1.855662432701917 0
422 2.249999999995845 0.7009618943221831 0
423 2.999999999998663 0.8452994616199416 0
424 2.416666666662683 0.7009618943220995 0
425 2.74999999999887 0.7009618943232797 0
426 2.916666666664396 0.700961894322312 0
427 2.583333333332171 0.7009618943234904 0
428 1.083334251218124 1.566987828046975 0
429 2.833333333338317 1.422649730810404 0
430 2.750000000002752 1.278312163512198 0
431 2.50000000000591 1.422649730809678 0
432 2.416666666668737 1.27831216351105 0
433 2.166666666674176 1.422649730811485 0
434 3.00000000000528 1.71132486540687 0
435 2.083333333345582 1.278312163517803 0
436 3.083333333337636 1.566987298108491 0
437 1.833333333360739 1.422649730822178 0
438 1.750000000201279 1.2783121636268 0
439 1.500000000396318 1.422649731036034 0
440 3.000000000003699 1.422649730811044 0
441 1.333333368593132 1.422649751165238 0
442 0.4242528880154287 0.4166666666682552 0
443 0.2550958235901788 1.863232516783384 0
444 4.243072368889329 0.1365020863630727 0
445 4.244101655260261 1.862499273117411 0
446 0.7487528508111005 0.1414318671210796 0
447 0.9189891703073257 0.1399777536705294 0
448 3.834060999017801 0.2816240033615291 0
449 3.499420694504245 0.275832334267242 0
450 3.167382050305439 0.2757410454458576 0
451 1.166666666663029 0.2783121635129645 0
452 1.333333333329018 0.2783121635128281 0
453 1.499999999995008 0.2783121635126827 0
454 1.666666666661 0.278312163512529 0
455 1.833333333326988 0.2783121635123668 0
456 1.999999999992981 0.2783121635121656 0
457 2.166666666658618 0.2783121635119182 0
458 2.333333333326102 0.2783121635123595 0
459 2.499999999993264 0.2783121635123396 0
460 2.833333333329916 0.2783121635135298 0
461 3.000545257466572 0.2774209037132092 0
462 2.666666666662862 0.2783121635137923 0
463 4.075737286178893 0.4237595616235079 0
464 3.666700869141036 0.2785132926784757 0
465 0.9999999999974362 0.2783192160820645 0
466 0.6732884632619963 0.2839196628751821 0
467 3.250157102844699 0.1356152463724338 0
468 3.416442116460728 0.1374868729144151 0
469 3.916666666665949 0.4226567833787555 0
470 0.433560158638988 0.9933566659482174 0
471 0.133670953953454 0.9153802357942635 0
472 0.2751446289456901 0.8145938042804766 0
473 0.4189179328671363 0.7233473902145203 0
474 4.228313968807659 0.9993535855612725 0
475 4.221861015940672 0.6854179945484611 0
476 0.1124743660068744 1.25275803322293 0
477 0.1102350505113194 1.578642384491293 0
478 0.418083540657022 0.1103059140421371 0
479 4.390538887598488 1.578612611469831 0
480 4.227161794717816 0.4275996814030372 0
481 4.388176068837062 1.260961996078893 0
482 0.1220084679281466 1.877991532071498 0
483 0.1220084679285446 0.1220084679288419 0
484 4.37799153207164 1.877991532071348 0
485 4.377991532072149 0.1220084679279479 0
486 0.3805159055345943 0.5806999935779333 0
487 0.3834810894572425 0.8827750812929328 0
488 0.5385256800194042 0.3016893975495349 0
489 7.925106877146072 0.1446047601677812 0
490 5.589793544739118 1.851497402230661 0
491 7.08051974152392 0.1462145376787195 0
492 6.416666666666661 1.855662432702585 0
493 7.42524812703725 1.859880847042294 0
494 6.083797508684073 0.1469155937143868 0
495 8.08333333333335 1.855662432702634 0
496 5.422161732140247 0.1411649897670045 0
497 6.920933214418349 1.869472364672786 0
498 6.588128848802023 0.147097902804682 0
499 8.855662432702898 0.9166666666708827 0
500 4.644337567297386 1.083333333330931 0
501 8.419525724358012 0.1493933107843953 0
502 8.851909496546961 1.418200333170568 0
503 5.081799666830816 1.851909496546755 0
504 4.645813001216805 0.5808978710032694 0
505 8.855662432701985 0.5833333333361338 0
506 4.64066996308966 1.423019143495587 0
507 8.416666666666503 1.855662432702557 0
508 5.749999999999994 0.1443375672974063 0
509 5.077443959622391 0.140937335800032 0
510 7.427128956590572 0.1329973619187753 0
511 7.750000000000052 1.855662432702612 0
512 6.091719982068032 1.834755664258745 0
513 8.849050458759686 1.734695730156743 0
514 4.756445855765822 0.1406160507358166 0
515 8.859383949263663 0.2564458557670694 0
516 4.640616050736165 1.743554144233484 0
517 8.844690771659463 1.107476091992632 0
518 8.711324865406615 1.00000000000436 0
519 8.711324865405551 0.8333333333385541 0
520 8.566987298109286 0.9166666666723626 0
521 8.566987298110412 1.083333333338306 0
522 8.422649730812971 1.000000000006368 0
523 8.422649730811868 0.8333333333402553 0
524 8.278312163515464 0.9166666666742824 0
525 8.27831216351661 1.083333333340477 0
526 8.133974596219014 1.000000000008366 0
527 8.130695723323356 1.160987492225854 0
528 7.989989928086578 1.080829035910746 0
529 7.989695845448713 0.9162492837708811 0
530 7.846267458886897 0.9979552849305184 0
531 7.845470597255243 0.8329229836797404 0
532 7.701151749809311 0.9162574892207556 0
533 7.690049801842802 1.10999597397211 0
534 7.556624327030377 1.000000000012286 0
535 7.556655969609626 0.8332651371029228 0
536 7.412292033495945 0.9166553006395428 0
537 7.409896253244224 1.079189437906596 0
538 7.267551653648146 0.9993074564341926 0
539 7.267484518224109 1.165860593510815 0
540 7.123467922972324 1.083083563890181 0
541 7.123521418312208 0.9165096145088825 0
542 6.979235073009093 0.9999321964109833 0
543 6.979252525897079 0.8332958573865692 0
544 6.83492640441408 0.9166491200891815 0
545 6.834928312050849 1.083319108317183 0
546 6.690595879142671 0.9999947047468416 0
547 6.690597052814707 1.166663413300696 0
548 6.546260536860208 1.083331908576566 0
549 6.546260712082979 0.9166655466779702 0
550 6.401923544825878 0.9999995758895077 0
551 6.401923640702014 0.8333330759970909 0
552 6.257586156058036 0.9166665531066336 0
553 6.257586169834642 1.083333243735797 0
554 6.113248634587631 0.9999999661554547 0
555 6.113248639928329 0.8333333087808426 0
556 5.968911081159566 0.9166666569495345 0
557 5.96891108258203 1.083333326088545 0
558 5.824573517832659 0.9999999971893457 0
559 5.824573518495411 1.166666665006853 0
560 5.680235951732568 1.083333332605198 0
561 5.680235951820618 0.9166666660937413 0
562 5.535898384738196 0.9999999998007928 0
563 5.535898384775021 1.166666666529446 0
564 5.391560817533712 1.08333333329549 0
565 5.391560817541948 0.9166666666454161 0
566 8.278312163514363 0.7500000000080982 0
567 5.391560817550212 1.249999999988739 0
568 7.123593002008699 0.7499675786593804 0
569 6.834931220863443 0.7499908295909817 0
570 7.420003977363597 1.262546655121181 0
571 7.99334307884623 1.237295574566065 0
572 5.968911083470084 0.7499999943039986 0
573 7.123510229076964 1.249824026243747 0
574 8.266089377594374 1.266242540558255 0
575 6.546260907697064 1.249999220325767 0
576 5.968911085903606 1.24999999853103 0
577 5.247223250264361 1.1666666666773 0
578 6.113248651152157 0.6666666616398984 0
579 5.824573519385258 1.333333333219418 0
580 6.690598536800964 1.333332661171866 0
581 5.250736112452372 1.327248877571876 0
582 8.422649730810853 0.6666666666740357 0
583 8.27831216351327 0.5833333333417818 0
584 5.107138764213287 1.242633447230701 0
585 5.103594529847364 1.082105574559655 0
586 5.96671999825632 0.5871284063815851 0
587 5.393514160987181 1.413283376651329 0
588 5.117327671193362 1.410260706863911 0
589 6.547646925890587 1.414266306218104 0
590 5.968911086606242 1.416666666417942 0
591 5.824573519426328 1.499999999955584 0
592 6.6922154962206 1.497199709421392 0
593 6.107442638467443 0.5134744838314436 0
594 8.422649730809848 0.5000000000077098 0
595 8.278312163512174 0.4166666666754192 0
596 8.133974596215596 0.5000000000094997 0
597 5.824208337495278 0.6672991779084625 0
598 5.821956386912598 0.5045330055510638 0
599 5.679738899743584 0.5841942528160085 0
600 6.835205854967175 1.416199839554401 0
601 6.546261223978364 0.7499997704585032 0
602 6.402154642268134 1.332933143326568 0
603 6.405231546010967 1.488225057608049 0
604 6.401923776505293 0.666666645562119 0
605 6.546261331927391 0.5833332915716667 0
606 6.40249510255946 0.5009895446965102 0
607 7.412292912455388 0.7499867396329496 0
608 7.556630626245537 0.6666530905753779 0
609 7.412288835053856 0.5833288605995559 0
610 7.556625722783876 0.4999969918708334 0
611 7.700963176820542 0.5833305693042221 0
612 7.699850967640384 0.4157541275774214 0
613 4.963042707905436 1.158881804599381 0
614 4.959415355528062 0.9984978965466822 0
615 5.102954061026043 0.9165482324371912 0
616 4.958704051994183 0.8330632437398924 0
617 5.102923068701994 0.74993524604897 0
618 4.958724172588805 0.6668599916799801 0
619 5.103031391751935 0.5835455212886886 0
620 4.975580943429819 0.4915975444662047 0
621 5.247253766021874 0.6666912390193445 0
622 5.247362756030217 0.5002302194956872 0
623 5.682534016708467 0.4293771347795686 0
624 5.971119347514788 1.579508513425447 0
625 5.82773732277249 1.690346598563119 0
626 5.68023595216872 1.583333333358077 0
627 8.135701758061074 0.3363248654142676 0
628 6.112812195532595 1.497969091718288 0
629 5.39158915448606 0.5833757986593736 0
630 8.566987298107424 0.5833333333400081 0
631 8.566987298106767 0.4166666666719501 0
632 7.989650995888148 0.7499497247079616 0
633 7.989637028917753 0.4166666666772438 0
634 6.837712603147526 1.578524868889366 0
635 6.979781637347998 1.499120784751037 0
636 6.685741183381241 1.673569852569951 0
637 7.409382631798719 0.4216965190073834 0
638 7.267465516997923 0.5008375632779024 0
639 6.543860485321108 0.4211549309249643 0
640 6.69019877413593 0.5007480370946297 0
641 6.408286250399454 0.3382535424275199 0
642 5.40782107348997 0.4087666135317501 0
643 7.263928404510008 0.3398471688329723 0
644 7.125300965730339 0.4221182501156211 0
645 4.814210548379727 0.7500000000313303 0
646 5.248621754367724 0.3338835665025385 0
647 6.679758952113009 0.3067522466737139 0
648 6.833063137167209 0.4123611584170871 0
649 6.832807880727741 0.2604534882944659 0
650 5.827655471271082 0.3188559534069711 0
651 6.98335618059668 1.659596209225757 0
652 7.124376575518298 1.582008387894761 0
653 7.119857226047736 1.738592528448708 0
654 7.258942131924369 1.665496053723022 0
655 7.259375802455384 1.499584073612237 0
656 7.407808458561972 1.57411755361858 0
657 6.10397810363228 1.658750681809133 0
658 8.275038924317247 0.2528858783244438 0
659 8.116093129442341 0.1615675296013753 0
660 4.814210548381996 1.083333333364106 0
661 4.823804352675763 1.249432590247238 0
662 8.855662432702479 0.7500000000040525 0
663 4.644337567296994 0.9166666666642879 0
664 4.651217485603063 1.253199703209615 0
665 8.856282685462258 0.4177409759634867 0
666 8.712048493624481 0.3345866941796785 0
667 8.728534943771153 0.1535266449607049 0
668 8.568338980364086 0.249963216143218 0
669 4.644337567297753 1.583333333332293 0
670 4.788054881835066 1.665592357371468 0
671 4.771479824151425 1.846498933832656 0
672 4.933012701892893 1.74999999999918 0
673 4.929241722224897 1.589506758613459 0
674 5.075035523939381 1.679096333000182 0
675 5.236574567493748 1.756709029308575 0
676 5.219187947513318 1.581358890309843 0
677 5.364089312258649 1.681624508999395 0
678 4.783664390947925 1.50826107563209 0
679 4.922372290180044 1.423177522718867 0
680 8.249999999999954 1.855662432702597 0
681 8.166666666666639 1.711324865405293 0
682 8.000000000000099 1.711324865405295 0
683 8.083333333333396 1.566987298108017 0
684 7.916666666666886 1.566987298107979 0
685 8.24999999999986 1.566987298108025 0
686 8.174509567183556 1.424129147507365 0
687 8.333333333333089 1.42264973081085 0
688 8.416666666666226 1.56698729810798 0
689 8.499999999999364 1.427623127458498 0
690 8.58333333333243 1.567816197549197 0
691 8.670862281200407 1.422388670435162 0
692 8.751211516625487 1.571253410179637 0
693 8.756652442837597 1.271538884957951 0
694 8.668125937406288 1.716855627102374 0
695 8.575975634051646 1.260472804863969 0
696 8.582925549873966 1.856284970094234 0
697 7.833333333333467 1.711324865405276 0
698 7.750000000000299 1.566987298107914 0
699 7.826284844442438 1.426719177769402 0
700 7.665491918518629 1.423327971970384 0
701 7.749406666725566 1.28004510860239 0
702 7.594538063130436 1.273396683426038 0
703 7.506710713480214 1.419507138153986 0
704 4.916666666666607 0.1443375672973795 0
705 4.827148204087219 0.2838636430389337 0
706 4.652464003518283 0.2708810757514487 0
707 4.741101703440723 0.4266944210697334 0
708 4.986403818090938 0.3078123326544318 0
709 5.247352787747532 0.9997756344961004 0
710 8.333333333333099 1.711324865405231 0
711 4.814210548380897 0.9166666666976838 0
712 5.249408799529483 0.1648427581561089 0
713 5.680162632883723 0.7501269923786223 0
714 7.997544940376079 1.403443661138985 0
715 6.83455669518125 0.5827388930812047 0
716 7.12237791578004 1.416200656533109 0
717 5.584249177578926 0.1403779615690136 0
718 5.502262103109459 0.2690252418677371 0
719 5.535886164903054 0.8333544986064766 0
720 5.824500434110321 0.8334599141372842 0
721 7.585026252157622 1.856552209589696 0
722 7.667888662763127 1.71201578013839 0
723 5.680235952147936 1.416666666657097 0
724 5.915797718881413 0.1519980533298131 0
725 6.007098628825386 0.2882468848914402 0
726 6.164454627663984 0.2747792413889361 0
727 6.243219177929385 0.1384212556396039 0
728 5.680235951901006 1.249999999562833 0
729 6.834979645386584 1.249919170396073 0
730 6.979188223400181 1.332988524026863 0
731 7.25781253653621 0.1678005378804659 0
732 6.249999999999995 1.855662432702587 0
733 6.341564963090621 1.726241395791013 0
734 6.4999118332984 1.713371661263789 0
735 6.583333333333334 1.855662432702564 0
736 6.754727971415345 1.845700368392713 0
737 5.401401938680443 1.83536023603984 0
738 7.754848745414653 0.1418746286232861 0
739 7.840346463545437 0.30293572061635 0
740 7.589535308193139 0.1296041237124289 0
741 5.750600442723565 1.854785805085936 0
742 5.916666666666638 1.855662432702573 0
743 6.113248641387202 1.166666644647867 0
744 6.979203187820655 0.6665544153472573 0
745 6.401962003806995 1.166599515312542 0
746 6.25763105545223 1.249922091177628 0
747 6.25744336206948 1.414741107231432 0
748 7.91666666666673 1.85566243270264 0
749 6.979218234315998 1.166511098214172 0
750 6.690595727287622 0.8333277730414058 0
751 6.690598923244197 0.6666666666849569 0
752 7.260306828812139 1.335113778616845 0
753 6.257586180949553 0.7499999297401928 0
754 4.639234734723099 0.7498943381936125 0
755 6.988848174114992 0.3073678727634332 0
756 7.267866702058999 0.8331822260926962 0
757 7.54154755396249 0.3533978308421989 0
758 7.701028596893806 0.7498493227600933 0
759 6.113203203599721 1.332990272096161 0
760 6.257285081769031 0.5867335438535612 0
761 5.539650304965534 1.493501483783575 0
762 8.133986726800423 0.8332553903075799 0
763 5.536849262054481 1.331686365528836 0
764 8.500175247879753 1.712488565160262 0
765 7.845341642899722 0.6665643223011718 0
766 8.422249831721215 1.166733242902546 0
767 7.267853098951754 0.6667727169352223 0
768 5.247267553101316 0.8332695031123862 0
769 8.566987298108236 0.750000000006287 0
770 5.535806009074841 0.6668419237523869 0
771 7.123781638224527 0.5843750873919904 0
772 8.422049068501099 0.3316161593602881 0
773 5.543976566018171 0.5097779771183961 0
774 5.391560577521515 0.7500332716325639 0
775 7.583923135179607 1.568422719817725 0
776 8.133978945808479 0.6666452969530804 0
777 6.97927405783779 0.5000000000165586 0
778 7.989639653599625 0.5833257848654549 0
779 7.844296488903909 0.494762865223644 0
780 8.711324865404865 0.6666666666718299 0
781 8.711548845567963 0.5003879450271812 0
782 6.414078602775001 0.1663235403801063 0
783 5.532468157552445 1.66865664370176 0
784 7.252237310405143 1.840353158858309 0
785 5.115388514678632 0.4142238216697109 0
786 4.817406509322621 0.5773051586424702 0
787 7.508029165032149 1.717307930947682 0
788 6.246369103519108 0.4086371062545476 0
789 8.745056932838299 1.863183638489946 0
790 6.264427724659471 1.592250467765549 0
791 7.857238777951279 1.168141637207937 0
792 6.547769486965899 1.568474778527136 0
793 6.745478177577899 0.1386704000789692 0
794 6.922912457219463 0.1386655645433371 0
795 5.656317977532616 0.2775597838933012 0
796 8.000983608157927 0.2711425610503955 0
797 5.676167083991267 1.729723956587911 0
798 5.963129188575425 0.4358056044489447 0
799 5.982203321397938 1.725394803928033 0
800 8.69309329279033 1.144290561532844 0
801 7.654562931761309 0.2621148122374123 0
802 7.542276014331355 1.141814660079596 0
803 7.141844869506198 0.2762949387152449 0
804 6.865282757341099 1.734719961028686 0
805 8.417411920902465 1.308306579717141 0
806 6.53012329128057 0.275933926290975 0
807 7.081445566607465 1.880542707710324 0
808 8.890434294386427 1.578163228034769 0
809 8.581584043895205 0.111367263176835 0
810 4.918556097783179 1.888699979757205 0
811 4.607875741635162 0.422361340231184 0
812 7.394858521065021 0.2801865948650432 0
813 8.891239560780818 1.250000000002427 0
814 5.250000000000002 1.891239560780751 0
815 8.260069572950064 0.1149304270546019 0
816 5.366126130712371 0.2652803583785833 0
817 8.112436537464719 1.298419683199305 0
818 5.133433967695382 0.270348346297373 0
819 5.39357110317649 1.549640079632581 0
820 5.274867399064544 1.456358386205908 0
821 7.36908852997274 1.416666666679984 0
822 5.05534464394289 1.538114860979907 0
823 4.986737157233578 1.29687721433202 0
824 4.764345696499291 1.371418007060679 0
825 8.87799153207178 1.877991532071595 0
826 8.877991532071418 0.1220084679287765 0
827 4.622008467928426 1.877991532071462 0
828 4.622008467928196 0.122008467928106 0
829 7.375427834121181 1.732338298131944 0
830 6.29429776665321 0.2645519992307981 0
831 7.879675696762825 1.302933022098019 0
832 4.869528235674264 0.4174546199743547 0
833 6.212218853352909 1.736528775833619 0
834 6.416666666666649 1.621578903261682 0
835 6.090322257121173 0.3816773883530642 0
836 4.729274057823417 1.16666666666439 0
837 4.729274057822569 0.9999999999974091 0
838 4.72927405782205 0.8333333333311824 0
839 4.728982527750991 0.666666666665009 0
840 7.005307647937418 1.780188050514972 0
841 7.511594522476425 0.2304171883091065 0
842 5.5623968266702 0.3824331652258101 0
$EndNodes
$Elements
1690
1 15 2 1 1 1
2 15 2 1 2 2
3 15 2 2 2 2
4 15 2 2 3 3
5 15 2 1 4 4
6 15 2 1 5 5
7 15 2 2 5 5
8 15 2 2 6 6
9 1 2 1 1 4 7
10 1 2 1 1 7 8
11 1 2 1 1 8 9
12 1 2 1 1 9 10
13 1 2 1 1 10 11
14 1 2 1 1 11 12
15 1 2 1 1 12 13
16 1 2 1 1 13 14
17 1 2 1 1 14 15
18 1 2 1 1 15 16
19 1 2 1 1 16 17
20 1 2 1 1 17 1
21 1 2 2 3 6 29
22 1 2 2 3 29 30
23 1 2 2 3 30 31
24 1 2 2 3 31 32
25 1 2 2 3 32 33
26 1 2 2 3 33 34
27 1 2 2 3 34 35
28 1 2 2 3 35 36
29 1 2 2 3 36 37
30 1 2 2 3 37 38
31 1 2 2 3 38 39
32 1 2 2 3 39 3
33 1 2 1 4 1 40
34 1 2 1 4 40 41
35 1 2 1 4 41 42
36 1 2 1 4 42 43
37 1 2 1 4 43 44
38 1 2 1 4 44 45
39 1 2 1 4 45 46
40 1 2 1 4 46 47
41 1 2 1 4 47 48
42 1 2 1 4 48 49
43 1 2 1 4 49 50
44 1 2 1 4 50 51
45 1 2 1 4 51 52
46 1 2 1 4 52 53
47 1 2 1 4 53 54
48 1 2 1 4 54 55
49 1 2 1 4 55 56
50 1 2 1 4 56 57
51 1 2 1 4 57 58
52 1 2 1 4 58 59
53 1 2 1 4 59 60
54 1 2 1 4 60 61
55 1 2 1 4 61 62
56 1 2 1 4 62 63
57 1 2 1 4 63 64
58 1 2 1 4 64 65
59 1 2 1 4 65 2
60 1 2 2 5 3 66
61 1 2 2 5 66 67
62 1 2 2 5 67 68
63 1 2 2 5 68 69
64 1 2 2 5 69 70
65 1 2 2 5 70 71
66 1 2 2 5 71 72
67 1 2 2 5 72 73
68 1 2 2 5 73 74
69 1 2 2 5 74 75
70 1 2 2 5 75 76
71 1 2 2 5 76 77
72 1 2 2 5 77 78
73 1 2 2 5 78 79
74 1 2 2 5 79 80
75 1 2 2 5 80 81
76 1 2 2 5 81 82
77 1 2 2 5 82 83
78 1 2 2 5 83 84
79 1 2 2 5 84 85
80 1 2 2 5 85 86
81 1 2 2 5 86 87
82 1 2 2 5 87 88
83 1 2 2 5 88 89
84 1 2 2 5 89 90
85 1 2 2 5 90 91
86 1 2 2 5 91 2
87 1 2 1 6 5 92
88 1 2 1 6 92 93
89 1 2 1 6 93 94
90 1 2 1 6 94 95
91 1 2 1 6 95 96
92 1 2 1 6 96 97
93 1 2 1 6 97 98
94 1 2 1 6 98 99
95 1 2 1 6 99 100
96 1 2 1 6 100 101
97 1 2 1 6 101 102
98 1 2 1 6 102 103
99 1 2 1 6 103 104
100 1 2 1 6 104 105
101 1 2 1 6 105 106
102 1 2 1 6 106 107
103 1 2 1 6 107 108
104 1 2 1 6 108 109
105 1 2 1 6 109 110
106 1 2 1 6 110 111
107 1 2 1 6 111 112
108 1 2 1 6 112 113
109 1 2 1 6 113 114
110 1 2 1 6 114 115
111 1 2 1 6 115 116
112 1 2 1 6 116 117
113 1 2 1 6 117 4
114 1 2 2 7 5 118
115 1 2 2 7 118 119
116 1 2 2 7 119 120
117 1 2 2 7 120 121
118 1 2 2 7 121 122
119 1 2 2 7 122 123
120 1 2 2 7 123 124
121 1 2 2 7 124 125
122 1 2 2 7 125 126
123 1 2 2 7 126 127
124 1 2 2 7 127 128
125 1 2 2 7 128 129
126 1 2 2 7 129 130
127 1 2 2 7 130 131
128 1 2 2 7 131 132
129 1 2 2 7 132 133
130 1 2 2 7 133 134
131 1 2 2 7 134 135
132 1 2 2 7 135 136
133 1 2 2 7 136 137
134 1 2 2 7 137 138
135 1 2 2 7 138 139
136 1 2 2 7 139 140
137 1 2 2 7 140 141
138 1 2 2 7 141 142
139 1 2 2 7 142 143
140 1 2 2 7 143 6
141 2 2 1 1 153 23 306
142 2 2 1 1 152 323 324
143 2 2 1 1 311 171 480
144 2 2 1 1 171 391 480
145 2 2 1 1 153 368 393
146 2 2 1 1 303 172 304
147 2 2 1 1 170 327 328
148 2 2 1 1 152 324 476
149 2 2 1 1 23 24 306
150 2 2 1 1 153 306 474
151 2 2 1 1 40 41 331
152 2 2 1 1 393 368 475
153 2 2 1 1 172 303 479
154 2 2 1 1 327 170 477
155 2 2 1 1 168 369 480
156 2 2 1 1 323 152 325
157 2 2 1 1 169 326 327
158 2 2 1 1 301 157 303
159 2 2 1 1 40 331 483
160 2 2 1 1 368 153 474
161 2 2 1 1 391 168 480
162 2 2 1 1 169 324 326
163 2 2 1 1 157 301 305
164 2 2 1 1 170 328 443
165 2 2 1 1 304 172 445
166 2 2 1 1 171 311 444
167 2 2 1 1 446 44 447
168 2 2 1 1 369 168 475
169 2 2 1 1 257 297 305
170 2 2 1 1 301 257 305
171 2 2 1 1 472 473 487
172 2 2 1 1 305 297 306
173 2 2 1 1 299 446 447
174 2 2 1 1 388 449 464
175 2 2 1 1 450 289 461
176 2 2 1 1 316 448 464
177 2 2 1 1 169 327 477
178 2 2 1 1 303 157 479
179 2 2 1 1 158 332 478
180 2 2 1 1 471 335 472
181 2 2 1 1 362 356 439
182 2 2 1 1 312 295 421
183 2 2 1 1 236 433 435
184 2 2 1 1 433 342 435
185 2 2 1 1 307 159 308
186 2 2 1 1 159 95 308
187 2 2 1 1 361 374 375
188 2 2 1 1 235 362 439
189 2 2 1 1 233 372 440
190 2 2 1 1 95 96 308
191 2 2 1 1 350 234 430
192 2 2 1 1 312 145 314
193 2 2 1 1 429 350 430
194 2 2 1 1 360 361 428
195 2 2 1 1 366 314 394
196 2 2 1 1 159 307 318
197 2 2 1 1 314 145 394
198 2 2 1 1 342 341 437
199 2 2 1 1 318 304 401
200 2 2 1 1 164 366 394
201 2 2 1 1 431 345 432
202 2 2 1 1 374 361 376
203 2 2 1 1 345 236 432
204 2 2 1 1 145 312 421
205 2 2 1 1 302 318 378
206 2 2 1 1 110 111 376
207 2 2 1 1 413 360 428
208 2 2 1 1 147 348 351
209 2 2 1 1 237 342 437
210 2 2 1 1 233 429 430
211 2 2 1 1 346 348 396
212 2 2 1 1 236 201 432
213 2 2 1 1 147 351 395
214 2 2 1 1 357 150 359
215 2 2 1 1 165 343 346
216 2 2 1 1 234 350 431
217 2 2 1 1 234 205 430
218 2 2 1 1 348 147 396
219 2 2 1 1 150 357 363
220 2 2 1 1 359 150 376
221 2 2 1 1 225 424 427
222 2 2 1 1 159 318 401
223 2 2 1 1 424 282 427
224 2 2 1 1 209 211 372
225 2 2 1 1 111 374 376
226 2 2 1 1 318 307 378
227 2 2 1 1 434 352 436
228 2 2 1 1 338 343 404
229 2 2 1 1 150 110 376
230 2 2 1 1 302 304 318
231 2 2 1 1 154 113 411
232 2 2 1 1 375 154 408
233 2 2 1 1 234 431 432
234 2 2 1 1 165 346 396
235 2 2 1 1 237 437 438
236 2 2 1 1 233 209 372
237 2 2 1 1 114 115 160
238 2 2 1 1 252 379 388
239 2 2 1 1 379 293 388
240 2 2 1 1 324 321 326
241 2 2 1 1 375 408 410
242 2 2 1 1 62 63 161
243 2 2 1 1 62 161 316
244 2 2 1 1 295 308 421
245 2 2 1 1 52 53 387
246 2 2 1 1 151 338 404
247 2 2 1 1 343 165 404
248 2 2 1 1 160 115 174
249 2 2 1 1 355 354 356
250 2 2 1 1 361 359 376
251 2 2 1 1 236 345 433
252 2 2 1 1 115 116 174
253 2 2 1 1 240 219 383
254 2 2 1 1 321 320 326
255 2 2 1 1 109 150 363
256 2 2 1 1 161 63 309
257 2 2 1 1 223 194 415
258 2 2 1 1 175 174 328
259 2 2 1 1 317 232 381
260 2 2 1 1 148 54 319
261 2 2 1 1 320 294 326
262 2 2 1 1 211 232 372
263 2 2 1 1 7 8 170
264 2 2 1 1 63 64 309
265 2 2 1 1 353 354 355
266 2 2 1 1 53 54 148
267 2 2 1 1 341 337 353
268 2 2 1 1 108 109 363
269 2 2 1 1 232 317 371
270 2 2 1 1 329 173 330
271 2 2 1 1 177 294 320
272 2 2 1 1 336 162 353
273 2 2 1 1 329 330 333
274 2 2 1 1 61 62 316
275 2 2 1 1 356 358 439
276 2 2 1 1 381 229 403
277 2 2 1 1 337 336 353
278 2 2 1 1 155 61 316
279 2 2 1 1 248 240 383
280 2 2 1 1 166 52 387
281 2 2 1 1 16 173 329
282 2 2 1 1 107 162 336
283 2 2 1 1 330 173 331
284 2 2 1 1 163 56 365
285 2 2 1 1 219 364 383
286 2 2 1 1 156 334 335
287 2 2 1 1 326 294 327
288 2 2 1 1 55 163 319
289 2 2 1 1 374 154 375
290 2 2 1 1 255 302 378
291 2 2 1 1 341 353 355
292 2 2 1 1 297 296 373
293 2 2 1 1 330 331 332
294 2 2 1 1 245 322 364
295 2 2 1 1 222 190 409
296 2 2 1 1 294 175 328
297 2 2 1 1 112 154 374
298 2 2 1 1 105 106 151
299 2 2 1 1 317 381 403
300 2 2 1 1 355 356 362
301 2 2 1 1 370 221 389
302 2 2 1 1 357 354 363
303 2 2 1 1 156 329 333
304 2 2 1 1 323 321 324
305 2 2 1 1 346 347 348
306 2 2 1 1 245 320 321
307 2 2 1 1 367 253 369
308 2 2 1 1 181 245 364
309 2 2 1 1 298 290 417
310 2 2 1 1 179 177 320
311 2 2 1 1 151 337 338
312 2 2 1 1 364 322 383
313 2 2 1 1 343 344 346
314 2 2 1 1 156 333 334
315 2 2 1 1 55 56 163
316 2 2 1 1 245 179 320
317 2 2 1 1 382 223 415
318 2 2 1 1 377 222 409
319 2 2 1 1 54 55 319
320 2 2 1 1 16 17 173
321 2 2 1 1 53 148 387
322 2 2 1 1 246 253 367
323 2 2 1 1 221 186 389
324 2 2 1 1 338 340 343
325 2 2 1 1 348 349 351
326 2 2 1 1 322 321 323
327 2 2 1 1 14 156 335
328 2 2 1 1 156 15 329
329 2 2 1 1 162 108 363
330 2 2 1 1 27 28 172
331 2 2 1 1 215 229 381
332 2 2 1 1 346 344 347
333 2 2 1 1 177 175 294
334 2 2 1 1 343 340 344
335 2 2 1 1 112 113 154
336 2 2 1 1 338 339 340
337 2 2 1 1 348 347 349
338 2 2 1 1 259 258 295
339 2 2 1 1 389 220 400
340 2 2 1 1 338 337 339
341 2 2 1 1 57 149 365
342 2 2 1 1 353 162 354
343 2 2 1 1 295 307 308
344 2 2 1 1 408 154 411
345 2 2 1 1 185 219 220
346 2 2 1 1 13 14 335
347 2 2 1 1 151 336 337
348 2 2 1 1 259 295 312
349 2 2 1 1 327 294 328
350 2 2 1 1 302 303 304
351 2 2 1 1 242 258 259
352 2 2 1 1 111 112 374
353 2 2 1 1 241 249 250
354 2 2 1 1 242 243 258
355 2 2 1 1 373 296 386
356 2 2 1 1 256 367 368
357 2 2 1 1 107 108 162
358 2 2 1 1 238 246 256
359 2 2 1 1 160 174 175
360 2 2 1 1 207 209 233
361 2 2 1 1 56 57 365
362 2 2 1 1 246 251 253
363 2 2 1 1 15 16 329
364 2 2 1 1 238 256 386
365 2 2 1 1 196 223 384
366 2 2 1 1 185 183 219
367 2 2 1 1 256 246 367
368 2 2 1 1 60 61 155
369 2 2 1 1 14 15 156
370 2 2 1 1 211 213 232
371 2 2 1 1 358 359 360
372 2 2 1 1 263 261 299
373 2 2 1 1 181 179 245
374 2 2 1 1 288 290 298
375 2 2 1 1 339 341 342
376 2 2 1 1 356 354 357
377 2 2 1 1 250 261 263
378 2 2 1 1 250 249 261
379 2 2 1 1 356 357 358
380 2 2 1 1 295 258 307
381 2 2 1 1 257 296 297
382 2 2 1 1 229 230 242
383 2 2 1 1 25 26 157
384 2 2 1 1 182 183 184
385 2 2 1 1 245 321 322
386 2 2 1 1 184 185 186
387 2 2 1 1 219 183 364
388 2 2 1 1 243 255 378
389 2 2 1 1 232 213 381
390 2 2 1 1 18 19 171
391 2 2 1 1 184 183 185
392 2 2 1 1 292 293 379
393 2 2 1 1 109 110 150
394 2 2 1 1 344 340 345
395 2 2 1 1 201 202 203
396 2 2 1 1 57 58 149
397 2 2 1 1 313 312 314
398 2 2 1 1 218 216 227
399 2 2 1 1 199 200 201
400 2 2 1 1 224 198 384
401 2 2 1 1 188 186 221
402 2 2 1 1 227 238 386
403 2 2 1 1 192 190 222
404 2 2 1 1 196 194 223
405 2 2 1 1 256 373 386
406 2 2 1 1 370 389 400
407 2 2 1 1 203 205 234
408 2 2 1 1 220 241 400
409 2 2 1 1 227 386 390
410 2 2 1 1 310 309 311
411 2 2 1 1 315 314 366
412 2 2 1 1 213 215 381
413 2 2 1 1 255 301 302
414 2 2 1 1 207 208 209
415 2 2 1 1 186 185 389
416 2 2 1 1 203 204 205
417 2 2 1 1 242 230 243
418 2 2 1 1 182 181 183
419 2 2 1 1 205 206 207
420 2 2 1 1 178 177 179
421 2 2 1 1 106 107 336
422 2 2 1 1 290 291 292
423 2 2 1 1 351 349 352
424 2 2 1 1 209 210 211
425 2 2 1 1 215 218 229
426 2 2 1 1 384 223 418
427 2 2 1 1 215 214 216
428 2 2 1 1 211 212 213
429 2 2 1 1 232 371 372
430 2 2 1 1 183 181 364
431 2 2 1 1 264 263 265
432 2 2 1 1 229 218 230
433 2 2 1 1 308 96 421
434 2 2 1 1 198 196 384
435 2 2 1 1 171 19 391
436 2 2 1 1 197 198 199
437 2 2 1 1 241 247 249
438 2 2 1 1 238 239 246
439 2 2 1 1 339 337 341
440 2 2 1 1 213 212 214
441 2 2 1 1 247 240 248
442 2 2 1 1 257 244 296
443 2 2 1 1 213 214 215
444 2 2 1 1 227 228 238
445 2 2 1 1 250 263 264
446 2 2 1 1 201 200 202
447 2 2 1 1 259 312 313
448 2 2 1 1 200 198 224
449 2 2 1 1 19 20 391
450 2 2 1 1 266 265 267
451 2 2 1 1 288 289 290
452 2 2 1 1 220 240 241
453 2 2 1 1 246 239 251
454 2 2 1 1 360 359 361
455 2 2 1 1 270 269 271
456 2 2 1 1 229 242 403
457 2 2 1 1 268 267 269
458 2 2 1 1 302 301 303
459 2 2 1 1 199 198 200
460 2 2 1 1 220 219 240
461 2 2 1 1 199 201 236
462 2 2 1 1 386 296 390
463 2 2 1 1 215 216 218
464 2 2 1 1 161 309 310
465 2 2 1 1 185 220 389
466 2 2 1 1 256 368 373
467 2 2 1 1 227 216 228
468 2 2 1 1 218 227 390
469 2 2 1 1 203 202 204
470 2 2 1 1 200 224 392
471 2 2 1 1 313 314 315
472 2 2 1 1 296 244 390
473 2 2 1 1 358 357 359
474 2 2 1 1 197 196 198
475 2 2 1 1 178 179 180
476 2 2 1 1 211 210 212
477 2 2 1 1 195 196 197
478 2 2 1 1 292 291 293
479 2 2 1 1 209 208 210
480 2 2 1 1 207 206 208
481 2 2 1 1 349 347 350
482 2 2 1 1 216 214 385
483 2 2 1 1 180 181 182
484 2 2 1 1 224 384 420
485 2 2 1 1 286 287 288
486 2 2 1 1 205 204 206
487 2 2 1 1 221 370 407
488 2 2 1 1 258 243 378
489 2 2 1 1 225 202 392
490 2 2 1 1 264 265 266
491 2 2 1 1 272 271 273
492 2 2 1 1 241 250 400
493 2 2 1 1 180 179 181
494 2 2 1 1 243 244 255
495 2 2 1 1 354 162 363
496 2 2 1 1 20 168 391
497 2 2 1 1 187 186 188
498 2 2 1 1 202 200 392
499 2 2 1 1 407 377 409
500 2 2 1 1 195 194 196
501 2 2 1 1 284 285 286
502 2 2 1 1 250 264 400
503 2 2 1 1 105 151 404
504 2 2 1 1 290 289 291
505 2 2 1 1 189 188 190
506 2 2 1 1 42 43 158
507 2 2 1 1 184 186 187
508 2 2 1 1 261 249 380
509 2 2 1 1 243 230 244
510 2 2 1 1 266 267 268
511 2 2 1 1 259 313 403
512 2 2 1 1 191 190 192
513 2 2 1 1 221 407 409
514 2 2 1 1 20 21 168
515 2 2 1 1 204 202 225
516 2 2 1 1 255 244 257
517 2 2 1 1 282 283 284
518 2 2 1 1 268 269 270
519 2 2 1 1 193 192 194
520 2 2 1 1 195 197 237
521 2 2 1 1 97 98 145
522 2 2 1 1 193 194 195
523 2 2 1 1 99 100 164
524 2 2 1 1 101 102 147
525 2 2 1 1 270 271 272
526 2 2 1 1 49 50 146
527 2 2 1 1 47 48 167
528 2 2 1 1 98 99 394
529 2 2 1 1 48 49 399
530 2 2 1 1 45 46 144
531 2 2 1 1 230 218 390
532 2 2 1 1 46 47 398
533 2 2 1 1 100 101 395
534 2 2 1 1 180 182 231
535 2 2 1 1 264 370 400
536 2 2 1 1 255 257 301
537 2 2 1 1 22 23 153
538 2 2 1 1 288 287 289
539 2 2 1 1 151 106 336
540 2 2 1 1 244 230 390
541 2 2 1 1 21 22 393
542 2 2 1 1 264 266 370
543 2 2 1 1 238 228 239
544 2 2 1 1 214 217 385
545 2 2 1 1 307 258 378
546 2 2 1 1 214 212 217
547 2 2 1 1 280 281 282
548 2 2 1 1 208 206 226
549 2 2 1 1 274 273 275
550 2 2 1 1 249 254 380
551 2 2 1 1 313 317 403
552 2 2 1 1 182 184 405
553 2 2 1 1 317 315 371
554 2 2 1 1 249 247 254
555 2 2 1 1 241 240 247
556 2 2 1 1 191 192 193
557 2 2 1 1 242 259 403
558 2 2 1 1 392 224 422
559 2 2 1 1 189 190 191
560 2 2 1 1 286 285 287
561 2 2 1 1 284 283 285
562 2 2 1 1 272 273 274
563 2 2 1 1 187 188 189
564 2 2 1 1 313 315 317
565 2 2 1 1 429 233 440
566 2 2 1 1 11 12 152
567 2 2 1 1 282 281 283
568 2 2 1 1 278 279 280
569 2 2 1 1 231 182 405
570 2 2 1 1 276 275 277
571 2 2 1 1 268 270 377
572 2 2 1 1 204 225 402
573 2 2 1 1 228 216 385
574 2 2 1 1 412 382 415
575 2 2 1 1 94 95 159
576 2 2 1 1 280 279 281
577 2 2 1 1 206 204 402
578 2 2 1 1 276 277 278
579 2 2 1 1 293 291 300
580 2 2 1 1 272 274 382
581 2 2 1 1 274 275 276
582 2 2 1 1 168 21 393
583 2 2 1 1 278 277 279
584 2 2 1 1 99 164 394
585 2 2 1 1 9 10 169
586 2 2 1 1 164 100 395
587 2 2 1 1 145 98 394
588 2 2 1 1 101 147 395
589 2 2 1 1 251 252 262
590 2 2 1 1 49 146 399
591 2 2 1 1 93 94 401
592 2 2 1 1 144 46 398
593 2 2 1 1 226 206 402
594 2 2 1 1 47 167 398
595 2 2 1 1 167 48 399
596 2 2 1 1 392 422 424
597 2 2 1 1 187 189 260
598 2 2 1 1 191 193 235
599 2 2 1 1 184 187 405
600 2 2 1 1 22 153 393
601 2 2 1 1 251 239 252
602 2 2 1 1 190 188 409
603 2 2 1 1 358 360 441
604 2 2 1 1 370 266 407
605 2 2 1 1 423 226 426
606 2 2 1 1 225 392 424
607 2 2 1 1 176 175 177
608 2 2 1 1 262 252 388
609 2 2 1 1 176 177 178
610 2 2 1 1 50 51 397
611 2 2 1 1 266 268 407
612 2 2 1 1 224 420 422
613 2 2 1 1 104 105 404
614 2 2 1 1 268 377 407
615 2 2 1 1 361 375 428
616 2 2 1 1 384 418 420
617 2 2 1 1 187 260 405
618 2 2 1 1 102 103 396
619 2 2 1 1 189 191 406
620 2 2 1 1 94 159 401
621 2 2 1 1 160 175 176
622 2 2 1 1 146 50 397
623 2 2 1 1 260 189 406
624 2 2 1 1 282 284 427
625 2 2 1 1 191 235 406
626 2 2 1 1 176 178 408
627 2 2 1 1 147 102 396
628 2 2 1 1 178 180 410
629 2 2 1 1 51 52 166
630 2 2 1 1 188 221 409
631 2 2 1 1 180 231 410
632 2 2 1 1 222 377 412
633 2 2 1 1 222 412 415
634 2 2 1 1 408 178 410
635 2 2 1 1 351 352 434
636 2 2 1 1 342 237 435
637 2 2 1 1 103 104 165
638 2 2 1 1 113 114 411
639 2 2 1 1 377 270 412
640 2 2 1 1 194 192 415
641 2 2 1 1 298 423 426
642 2 2 1 1 272 382 412
643 2 2 1 1 284 286 425
644 2 2 1 1 439 358 441
645 2 2 1 1 217 212 414
646 2 2 1 1 51 166 397
647 2 2 1 1 231 405 413
648 2 2 1 1 414 298 417
649 2 2 1 1 379 252 416
650 2 2 1 1 416 385 419
651 2 2 1 1 284 425 427
652 2 2 1 1 228 385 416
653 2 2 1 1 270 272 412
654 2 2 1 1 417 292 419
655 2 2 1 1 223 382 418
656 2 2 1 1 103 165 396
657 2 2 1 1 252 239 416
658 2 2 1 1 165 104 404
659 2 2 1 1 382 274 418
660 2 2 1 1 405 260 413
661 2 2 1 1 212 210 414
662 2 2 1 1 96 97 421
663 2 2 1 1 160 176 411
664 2 2 1 1 192 222 415
665 2 2 1 1 114 160 411
666 2 2 1 1 290 292 417
667 2 2 1 1 292 379 419
668 2 2 1 1 239 228 416
669 2 2 1 1 208 226 423
670 2 2 1 1 410 231 428
671 2 2 1 1 176 408 411
672 2 2 1 1 379 416 419
673 2 2 1 1 217 417 419
674 2 2 1 1 349 350 429
675 2 2 1 1 288 298 426
676 2 2 1 1 437 362 438
677 2 2 1 1 205 207 430
678 2 2 1 1 274 276 418
679 2 2 1 1 375 410 428
680 2 2 1 1 217 414 417
681 2 2 1 1 414 210 423
682 2 2 1 1 385 217 419
683 2 2 1 1 286 288 426
684 2 2 1 1 418 276 420
685 2 2 1 1 298 414 423
686 2 2 1 1 344 345 431
687 2 2 1 1 276 278 420
688 2 2 1 1 350 347 431
689 2 2 1 1 97 145 421
690 2 2 1 1 362 235 438
691 2 2 1 1 201 203 432
692 2 2 1 1 420 278 422
693 2 2 1 1 278 280 422
694 2 2 1 1 422 280 424
695 2 2 1 1 341 355 437
696 2 2 1 1 210 208 423
697 2 2 1 1 345 340 433
698 2 2 1 1 280 282 424
699 2 2 1 1 339 342 433
700 2 2 1 1 226 402 425
701 2 2 1 1 402 225 427
702 2 2 1 1 425 402 427
703 2 2 1 1 199 236 435
704 2 2 1 1 237 197 435
705 2 2 1 1 231 413 428
706 2 2 1 1 366 434 436
707 2 2 1 1 371 315 436
708 2 2 1 1 195 237 438
709 2 2 1 1 352 349 429
710 2 2 1 1 235 193 438
711 2 2 1 1 425 286 426
712 2 2 1 1 372 371 440
713 2 2 1 1 207 233 430
714 2 2 1 1 226 425 426
715 2 2 1 1 413 260 441
716 2 2 1 1 371 436 440
717 2 2 1 1 360 413 441
718 2 2 1 1 347 344 431
719 2 2 1 1 366 164 434
720 2 2 1 1 203 234 432
721 2 2 1 1 164 395 434
722 2 2 1 1 395 351 434
723 2 2 1 1 340 339 433
724 2 2 1 1 197 199 435
725 2 2 1 1 315 366 436
726 2 2 1 1 355 362 437
727 2 2 1 1 193 195 438
728 2 2 1 1 406 235 439
729 2 2 1 1 260 406 441
730 2 2 1 1 406 439 441
731 2 2 1 1 436 352 440
732 2 2 1 1 352 429 440
733 2 2 1 1 472 334 473
734 2 2 1 1 323 325 470
735 2 2 1 1 325 152 471
736 2 2 1 1 448 262 464
737 2 2 1 1 449 155 464
738 2 2 1 1 149 450 461
739 2 2 1 1 330 332 442
740 2 2 1 1 401 304 445
741 2 2 1 1 328 174 443
742 2 2 1 1 116 117 443
743 2 2 1 1 311 309 444
744 2 2 1 1 64 65 444
745 2 2 1 1 92 93 445
746 2 2 1 1 43 44 446
747 2 2 1 1 44 45 447
748 2 2 1 1 316 161 448
749 2 2 1 1 291 289 450
750 2 2 1 1 388 293 449
751 2 2 1 1 263 299 465
752 2 2 1 1 299 261 466
753 2 2 1 1 149 58 467
754 2 2 1 1 60 155 468
755 2 2 1 1 251 262 469
756 2 2 1 1 325 471 472
757 2 2 1 1 248 383 470
758 2 2 1 1 322 323 470
759 2 2 1 1 13 335 471
760 2 2 1 1 152 12 471
761 2 2 1 1 324 169 476
762 2 2 1 1 254 247 473
763 2 2 1 1 373 368 474
764 2 2 1 1 333 330 442
765 2 2 1 1 380 254 442
766 2 2 1 1 174 116 443
767 2 2 1 1 309 64 444
768 2 2 1 1 93 401 445
769 2 2 1 1 306 297 474
770 2 2 1 1 299 447 465
771 2 2 1 1 446 299 466
772 2 2 1 1 155 449 468
773 2 2 1 1 450 149 467
774 2 2 1 1 262 448 469
775 2 2 1 1 158 43 446
776 2 2 1 1 45 144 447
777 2 2 1 1 161 310 448
778 2 2 1 1 293 300 449
779 2 2 1 1 300 291 450
780 2 2 1 1 300 467 468
781 2 2 1 1 310 463 469
782 2 2 1 1 144 451 465
783 2 2 1 1 283 459 462
784 2 2 1 1 279 457 458
785 2 2 1 1 459 319 462
786 2 2 1 1 273 271 454
787 2 2 1 1 271 269 453
788 2 2 1 1 269 267 452
789 2 2 1 1 275 273 455
790 2 2 1 1 267 265 451
791 2 2 1 1 277 275 456
792 2 2 1 1 279 277 457
793 2 2 1 1 271 453 454
794 2 2 1 1 269 452 453
795 2 2 1 1 267 451 452
796 2 2 1 1 273 454 455
797 2 2 1 1 144 398 451
798 2 2 1 1 275 455 456
799 2 2 1 1 451 398 452
800 2 2 1 1 398 167 452
801 2 2 1 1 281 458 459
802 2 2 1 1 452 167 453
803 2 2 1 1 167 399 453
804 2 2 1 1 281 279 458
805 2 2 1 1 453 399 454
806 2 2 1 1 399 146 454
807 2 2 1 1 283 281 459
808 2 2 1 1 277 456 457
809 2 2 1 1 454 146 455
810 2 2 1 1 146 397 455
811 2 2 1 1 319 163 462
812 2 2 1 1 369 253 463
813 2 2 1 1 455 397 456
814 2 2 1 1 163 365 460
815 2 2 1 1 397 166 456
816 2 2 1 1 457 387 458
817 2 2 1 1 163 460 462
818 2 2 1 1 166 387 457
819 2 2 1 1 148 319 459
820 2 2 1 1 365 149 461
821 2 2 1 1 460 365 461
822 2 2 1 1 458 148 459
823 2 2 1 1 456 166 457
824 2 2 1 1 387 148 458
825 2 2 1 1 287 285 460
826 2 2 1 1 289 287 461
827 2 2 1 1 285 283 462
828 2 2 1 1 460 285 462
829 2 2 1 1 287 460 461
830 2 2 1 1 310 311 463
831 2 2 1 1 262 388 464
832 2 2 1 1 155 316 464
833 2 2 1 1 463 253 469
834 2 2 1 1 451 265 465
835 2 2 1 1 265 263 465
836 2 2 1 1 261 380 466
837 2 2 1 1 58 59 467
838 2 2 1 1 467 59 468
839 2 2 1 1 59 60 468
840 2 2 1 1 253 251 469
841 2 2 1 1 332 158 488
842 2 2 1 1 368 367 475
843 2 2 1 1 11 152 476
844 2 2 1 1 169 10 476
845 2 2 1 1 170 8 477
846 2 2 1 1 27 172 479
847 2 2 1 1 157 26 479
848 2 2 1 1 9 169 477
849 2 2 1 1 42 158 478
850 2 2 1 1 168 393 475
851 2 2 1 1 157 305 481
852 2 2 1 1 4 7 482
853 2 2 1 1 17 1 483
854 2 2 1 1 117 4 482
855 2 2 1 1 28 5 484
856 2 2 1 1 1 40 483
857 2 2 1 1 5 92 484
858 2 2 1 1 331 173 483
859 2 2 1 1 2 18 485
860 2 2 1 1 65 2 485
861 2 2 1 1 383 322 470
862 2 2 1 1 12 13 471
863 2 2 1 1 25 157 481
864 2 2 1 1 447 144 465
865 2 2 1 1 158 446 466
866 2 2 1 1 448 310 469
867 2 2 1 1 449 300 468
868 2 2 1 1 300 450 467
869 2 2 1 1 473 248 487
870 2 2 1 1 442 332 488
871 2 2 1 1 335 334 472
872 2 2 1 1 247 248 473
873 2 2 1 1 297 373 474
874 2 2 1 1 442 254 486
875 2 2 1 1 333 442 486
876 2 2 1 1 380 442 488
877 2 2 1 1 331 41 478
878 2 2 1 1 367 369 475
879 2 2 1 1 306 24 481
880 2 2 1 1 10 11 476
881 2 2 1 1 41 42 478
882 2 2 1 1 332 331 478
883 2 2 1 1 8 9 477
884 2 2 1 1 26 27 479
885 2 2 1 1 24 25 481
886 2 2 1 1 463 311 480
887 2 2 1 1 305 306 481
888 2 2 1 1 443 117 482
889 2 2 1 1 444 65 485
890 2 2 1 1 92 445 484
891 2 2 1 1 158 466 488
892 2 2 1 1 254 473 486
893 2 2 1 1 173 17 483
894 2 2 1 1 7 170 482
895 2 2 1 1 172 28 484
896 2 2 1 1 18 171 485
897 2 2 1 1 248 470 487
898 2 2 1 1 369 463 480
899 2 2 1 1 334 333 486
900 2 2 1 1 170 443 482
901 2 2 1 1 171 444 485
902 2 2 1 1 445 172 484
903 2 2 1 1 470 325 487
904 2 2 1 1 325 472 487
905 2 2 1 1 473 334 486
906 2 2 1 1 466 380 488
907 2 2 2 2 701 533 702
908 2 2 2 2 71 489 659
909 2 2 2 2 737 490 783
910 2 2 2 2 677 737 783
911 2 2 2 2 702 533 802
912 2 2 2 2 636 734 735
913 2 2 2 2 633 739 779
914 2 2 2 2 508 650 724
915 2 2 2 2 625 741 742
916 2 2 2 2 498 647 793
917 2 2 2 2 755 491 794
918 2 2 2 2 677 675 737
919 2 2 2 2 513 692 694
920 2 2 2 2 636 735 736
921 2 2 2 2 724 650 725
922 2 2 2 2 739 612 779
923 2 2 2 2 659 489 796
924 2 2 2 2 708 620 785
925 2 2 2 2 70 71 659
926 2 2 2 2 647 498 806
927 2 2 2 2 693 517 800
928 2 2 2 2 695 521 766
929 2 2 2 2 517 693 813
930 2 2 2 2 737 675 814
931 2 2 2 2 491 755 803
932 2 2 2 2 574 686 687
933 2 2 2 2 620 708 832
934 2 2 2 2 130 131 736
935 2 2 2 2 66 67 667
936 2 2 2 2 118 119 671
937 2 2 2 2 18 19 706
938 2 2 2 2 676 588 822
939 2 2 2 2 692 513 808
940 2 2 2 2 588 676 820
941 2 2 2 2 625 742 799
942 2 2 2 2 668 501 772
943 2 2 2 2 502 691 692
944 2 2 2 2 672 503 674
945 2 2 2 2 731 643 812
946 2 2 2 2 78 793 794
947 2 2 2 2 66 667 826
948 2 2 2 2 118 671 827
949 2 2 2 2 18 706 828
950 2 2 2 2 650 508 795
951 2 2 2 2 649 755 794
952 2 2 2 2 702 570 703
953 2 2 2 2 686 574 817
954 2 2 2 2 533 701 791
955 2 2 2 2 741 625 797
956 2 2 2 2 647 649 793
957 2 2 2 2 691 502 693
958 2 2 2 2 674 503 675
959 2 2 2 2 679 661 824
960 2 2 2 2 661 679 823
961 2 2 2 2 739 633 796
962 2 2 2 2 735 130 736
963 2 2 2 2 131 497 736
964 2 2 2 2 501 658 772
965 2 2 2 2 521 695 800
966 2 2 2 2 654 653 784
967 2 2 2 2 734 636 792
968 2 2 2 2 513 694 789
969 2 2 2 2 494 724 725
970 2 2 2 2 703 656 775
971 2 2 2 2 510 731 812
972 2 2 2 2 707 504 786
973 2 2 2 2 695 766 805
974 2 2 2 2 793 649 794
975 2 2 2 2 494 725 726
976 2 2 2 2 782 641 806
977 2 2 2 2 703 570 821
978 2 2 2 2 643 731 803
979 2 2 2 2 691 693 695
980 2 2 2 2 783 490 797
981 2 2 2 2 654 784 829
982 2 2 2 2 512 657 799
983 2 2 2 2 674 675 676
984 2 2 2 2 657 512 833
985 2 2 2 2 712 646 816
986 2 2 2 2 646 712 818
987 2 2 2 2 641 782 830
988 2 2 2 2 676 677 819
989 2 2 2 2 676 819 820
990 2 2 2 2 494 726 727
991 2 2 2 2 676 675 677
992 2 2 2 2 502 692 808
993 2 2 2 2 503 672 810
994 2 2 2 2 504 707 811
995 2 2 2 2 501 668 809
996 2 2 2 2 801 740 841
997 2 2 2 2 81 82 727
998 2 2 2 2 82 494 727
999 2 2 2 2 775 656 787
1000 2 2 2 2 81 727 782
1001 2 2 2 2 631 668 772
1002 2 2 2 2 631 666 668
1003 2 2 2 2 665 666 781
1004 2 2 2 2 666 631 781
1005 2 2 2 2 36 505 662
1006 2 2 2 2 662 505 780
1007 2 2 2 2 505 665 781
1008 2 2 2 2 34 35 499
1009 2 2 2 2 34 499 517
1010 2 2 2 2 35 36 662
1011 2 2 2 2 500 24 664
1012 2 2 2 2 507 696 764
1013 2 2 2 2 665 515 666
1014 2 2 2 2 23 24 500
1015 2 2 2 2 38 515 665
1016 2 2 2 2 780 505 781
1017 2 2 2 2 517 499 518
1018 2 2 2 2 696 694 764
1019 2 2 2 2 23 500 663
1020 2 2 2 2 680 507 710
1021 2 2 2 2 29 30 513
1022 2 2 2 2 36 37 505
1023 2 2 2 2 25 506 664
1024 2 2 2 2 506 26 669
1025 2 2 2 2 670 673 678
1026 2 2 2 2 505 37 665
1027 2 2 2 2 506 669 678
1028 2 2 2 2 511 697 722
1029 2 2 2 2 669 670 678
1030 2 2 2 2 678 673 679
1031 2 2 2 2 697 698 722
1032 2 2 2 2 710 507 764
1033 2 2 2 2 24 25 664
1034 2 2 2 2 666 667 668
1035 2 2 2 2 666 515 667
1036 2 2 2 2 140 507 680
1037 2 2 2 2 689 690 691
1038 2 2 2 2 25 26 506
1039 2 2 2 2 669 516 670
1040 2 2 2 2 687 688 689
1041 2 2 2 2 697 511 748
1042 2 2 2 2 27 516 669
1043 2 2 2 2 509 704 708
1044 2 2 2 2 691 690 692
1045 2 2 2 2 755 648 777
1046 2 2 2 2 670 671 672
1047 2 2 2 2 509 89 704
1048 2 2 2 2 564 565 709
1049 2 2 2 2 38 39 515
1050 2 2 2 2 689 688 690
1051 2 2 2 2 670 516 671
1052 2 2 2 2 681 680 710
1053 2 2 2 2 705 514 706
1054 2 2 2 2 37 38 665
1055 2 2 2 2 686 685 687
1056 2 2 2 2 689 691 695
1057 2 2 2 2 577 564 709
1058 2 2 2 2 26 27 669
1059 2 2 2 2 704 705 708
1060 2 2 2 2 140 141 507
1061 2 2 2 2 705 706 707
1062 2 2 2 2 660 614 711
1063 2 2 2 2 673 672 674
1064 2 2 2 2 507 141 696
1065 2 2 2 2 495 139 680
1066 2 2 2 2 511 137 748
1067 2 2 2 2 495 680 681
1068 2 2 2 2 687 685 688
1069 2 2 2 2 68 69 501
1070 2 2 2 2 709 565 768
1071 2 2 2 2 90 514 704
1072 2 2 2 2 27 28 516
1073 2 2 2 2 704 514 705
1074 2 2 2 2 670 672 673
1075 2 2 2 2 139 140 680
1076 2 2 2 2 90 91 514
1077 2 2 2 2 613 585 614
1078 2 2 2 2 558 556 720
1079 2 2 2 2 716 655 752
1080 2 2 2 2 141 142 696
1081 2 2 2 2 716 573 730
1082 2 2 2 2 576 590 759
1083 2 2 2 2 715 640 751
1084 2 2 2 2 496 87 712
1085 2 2 2 2 613 614 660
1086 2 2 2 2 683 685 686
1087 2 2 2 2 616 618 645
1088 2 2 2 2 719 770 774
1089 2 2 2 2 569 715 751
1090 2 2 2 2 723 579 728
1091 2 2 2 2 683 681 685
1092 2 2 2 2 721 511 722
1093 2 2 2 2 138 139 495
1094 2 2 2 2 599 623 773
1095 2 2 2 2 683 686 714
1096 2 2 2 2 713 561 720
1097 2 2 2 2 561 713 719
1098 2 2 2 2 616 645 711
1099 2 2 2 2 585 577 709
1100 2 2 2 2 561 558 720
1101 2 2 2 2 88 89 509
1102 2 2 2 2 88 509 712
1103 2 2 2 2 495 682 748
1104 2 2 2 2 682 681 683
1105 2 2 2 2 761 723 763
1106 2 2 2 2 614 616 711
1107 2 2 2 2 136 511 721
1108 2 2 2 2 584 585 613
1109 2 2 2 2 640 605 751
1110 2 2 2 2 652 655 716
1111 2 2 2 2 89 90 704
1112 2 2 2 2 584 577 585
1113 2 2 2 2 611 608 758
1114 2 2 2 2 556 572 720
1115 2 2 2 2 743 576 759
1116 2 2 2 2 587 761 763
1117 2 2 2 2 729 730 749
1118 2 2 2 2 120 121 503
1119 2 2 2 2 717 496 718
1120 2 2 2 2 768 565 774
1121 2 2 2 2 508 85 717
1122 2 2 2 2 126 512 742
1123 2 2 2 2 682 697 748
1124 2 2 2 2 129 130 735
1125 2 2 2 2 567 564 577
1126 2 2 2 2 560 561 562
1127 2 2 2 2 554 555 556
1128 2 2 2 2 626 591 723
1129 2 2 2 2 559 558 560
1130 2 2 2 2 489 738 739
1131 2 2 2 2 557 556 558
1132 2 2 2 2 495 681 682
1133 2 2 2 2 494 83 724
1134 2 2 2 2 591 579 723
1135 2 2 2 2 136 137 511
1136 2 2 2 2 554 557 743
1137 2 2 2 2 597 599 713
1138 2 2 2 2 698 684 699
1139 2 2 2 2 563 562 564
1140 2 2 2 2 573 716 752
1141 2 2 2 2 699 684 714
1142 2 2 2 2 86 87 496
1143 2 2 2 2 730 573 749
1144 2 2 2 2 86 496 717
1145 2 2 2 2 614 615 616
1146 2 2 2 2 125 126 742
1147 2 2 2 2 655 654 656
1148 2 2 2 2 715 569 744
1149 2 2 2 2 614 585 615
1150 2 2 2 2 492 129 735
1151 2 2 2 2 635 716 730
1152 2 2 2 2 564 562 565
1153 2 2 2 2 700 699 701
1154 2 2 2 2 557 576 743
1155 2 2 2 2 560 558 561
1156 2 2 2 2 652 654 655
1157 2 2 2 2 682 683 684
1158 2 2 2 2 553 552 554
1159 2 2 2 2 554 556 557
1160 2 2 2 2 738 73 740
1161 2 2 2 2 83 84 724
1162 2 2 2 2 135 136 721
1163 2 2 2 2 123 490 737
1164 2 2 2 2 554 552 555
1165 2 2 2 2 560 562 563
1166 2 2 2 2 733 492 734
1167 2 2 2 2 610 608 611
1168 2 2 2 2 635 652 716
1169 2 2 2 2 729 600 730
1170 2 2 2 2 545 547 729
1171 2 2 2 2 600 635 730
1172 2 2 2 2 644 755 777
1173 2 2 2 2 556 555 572
1174 2 2 2 2 489 72 738
1175 2 2 2 2 648 640 715
1176 2 2 2 2 84 508 724
1177 2 2 2 2 84 85 508
1178 2 2 2 2 579 559 728
1179 2 2 2 2 572 586 597
1180 2 2 2 2 625 591 626
1181 2 2 2 2 87 88 712
1182 2 2 2 2 603 602 747
1183 2 2 2 2 597 598 599
1184 2 2 2 2 685 681 710
1185 2 2 2 2 713 599 770
1186 2 2 2 2 73 74 740
1187 2 2 2 2 122 123 737
1188 2 2 2 2 493 135 721
1189 2 2 2 2 684 683 714
1190 2 2 2 2 510 75 731
1191 2 2 2 2 580 600 729
1192 2 2 2 2 732 492 733
1193 2 2 2 2 128 492 732
1194 2 2 2 2 547 580 729
1195 2 2 2 2 85 86 717
1196 2 2 2 2 600 634 635
1197 2 2 2 2 557 558 559
1198 2 2 2 2 734 492 735
1199 2 2 2 2 127 128 732
1200 2 2 2 2 647 640 648
1201 2 2 2 2 580 592 600
1202 2 2 2 2 72 73 738
1203 2 2 2 2 563 564 567
1204 2 2 2 2 75 76 731
1205 2 2 2 2 572 597 720
1206 2 2 2 2 545 729 749
1207 2 2 2 2 521 522 766
1208 2 2 2 2 559 560 728
1209 2 2 2 2 512 127 732
1210 2 2 2 2 74 75 510
1211 2 2 2 2 599 598 623
1212 2 2 2 2 652 653 654
1213 2 2 2 2 550 552 553
1214 2 2 2 2 567 577 581
1215 2 2 2 2 76 491 731
1216 2 2 2 2 570 539 752
1217 2 2 2 2 71 72 489
1218 2 2 2 2 82 83 494
1219 2 2 2 2 76 77 491
1220 2 2 2 2 553 554 743
1221 2 2 2 2 123 124 490
1222 2 2 2 2 128 129 492
1223 2 2 2 2 134 135 493
1224 2 2 2 2 698 699 700
1225 2 2 2 2 126 127 512
1226 2 2 2 2 131 132 497
1227 2 2 2 2 600 592 634
1228 2 2 2 2 79 80 498
1229 2 2 2 2 601 549 750
1230 2 2 2 2 74 510 740
1231 2 2 2 2 138 495 748
1232 2 2 2 2 551 549 601
1233 2 2 2 2 550 551 552
1234 2 2 2 2 604 601 605
1235 2 2 2 2 635 634 651
1236 2 2 2 2 550 553 745
1237 2 2 2 2 647 648 649
1238 2 2 2 2 597 586 598
1239 2 2 2 2 635 651 652
1240 2 2 2 2 522 525 766
1241 2 2 2 2 605 601 751
1242 2 2 2 2 639 605 640
1243 2 2 2 2 589 602 603
1244 2 2 2 2 604 605 606
1245 2 2 2 2 639 640 647
1246 2 2 2 2 548 549 550
1247 2 2 2 2 741 125 742
1248 2 2 2 2 551 601 604
1249 2 2 2 2 550 549 551
1250 2 2 2 2 562 561 719
1251 2 2 2 2 597 713 720
1252 2 2 2 2 548 546 549
1253 2 2 2 2 652 651 653
1254 2 2 2 2 589 575 602
1255 2 2 2 2 606 639 641
1256 2 2 2 2 590 628 759
1257 2 2 2 2 547 546 548
1258 2 2 2 2 580 589 592
1259 2 2 2 2 572 578 586
1260 2 2 2 2 616 617 618
1261 2 2 2 2 547 575 580
1262 2 2 2 2 590 624 628
1263 2 2 2 2 634 592 636
1264 2 2 2 2 542 545 749
1265 2 2 2 2 578 555 753
1266 2 2 2 2 542 544 545
1267 2 2 2 2 548 550 745
1268 2 2 2 2 555 552 753
1269 2 2 2 2 545 546 547
1270 2 2 2 2 547 548 575
1271 2 2 2 2 580 575 589
1272 2 2 2 2 544 569 750
1273 2 2 2 2 544 543 569
1274 2 2 2 2 546 544 750
1275 2 2 2 2 606 605 639
1276 2 2 2 2 545 544 546
1277 2 2 2 2 602 575 745
1278 2 2 2 2 628 624 657
1279 2 2 2 2 543 541 568
1280 2 2 2 2 590 579 591
1281 2 2 2 2 745 553 746
1282 2 2 2 2 539 573 752
1283 2 2 2 2 542 543 544
1284 2 2 2 2 602 745 746
1285 2 2 2 2 604 606 760
1286 2 2 2 2 700 701 702
1287 2 2 2 2 610 611 612
1288 2 2 2 2 569 543 744
1289 2 2 2 2 124 125 741
1290 2 2 2 2 575 548 745
1291 2 2 2 2 137 138 748
1292 2 2 2 2 576 559 579
1293 2 2 2 2 540 542 749
1294 2 2 2 2 638 643 644
1295 2 2 2 2 537 539 570
1296 2 2 2 2 549 546 750
1297 2 2 2 2 624 591 625
1298 2 2 2 2 590 591 624
1299 2 2 2 2 602 746 747
1300 2 2 2 2 586 578 593
1301 2 2 2 2 581 577 584
1302 2 2 2 2 543 568 744
1303 2 2 2 2 557 559 576
1304 2 2 2 2 576 579 590
1305 2 2 2 2 688 685 710
1306 2 2 2 2 623 598 650
1307 2 2 2 2 490 124 741
1308 2 2 2 2 540 538 541
1309 2 2 2 2 565 562 719
1310 2 2 2 2 697 684 698
1311 2 2 2 2 572 555 578
1312 2 2 2 2 542 541 543
1313 2 2 2 2 601 750 751
1314 2 2 2 2 723 728 763
1315 2 2 2 2 573 540 749
1316 2 2 2 2 553 743 746
1317 2 2 2 2 539 540 573
1318 2 2 2 2 750 569 751
1319 2 2 2 2 22 23 663
1320 2 2 2 2 540 541 542
1321 2 2 2 2 609 637 638
1322 2 2 2 2 638 637 643
1323 2 2 2 2 622 642 646
1324 2 2 2 2 539 538 540
1325 2 2 2 2 578 753 760
1326 2 2 2 2 530 532 533
1327 2 2 2 2 560 563 728
1328 2 2 2 2 609 608 610
1329 2 2 2 2 534 536 537
1330 2 2 2 2 618 619 620
1331 2 2 2 2 551 604 753
1332 2 2 2 2 615 585 709
1333 2 2 2 2 552 551 753
1334 2 2 2 2 682 684 697
1335 2 2 2 2 609 610 637
1336 2 2 2 2 616 615 617
1337 2 2 2 2 538 536 756
1338 2 2 2 2 722 698 775
1339 2 2 2 2 607 535 608
1340 2 2 2 2 565 719 774
1341 2 2 2 2 21 22 754
1342 2 2 2 2 534 535 536
1343 2 2 2 2 537 538 539
1344 2 2 2 2 746 743 759
1345 2 2 2 2 568 541 756
1346 2 2 2 2 531 529 632
1347 2 2 2 2 534 532 535
1348 2 2 2 2 567 581 587
1349 2 2 2 2 20 21 504
1350 2 2 2 2 622 621 629
1351 2 2 2 2 649 648 755
1352 2 2 2 2 753 604 760
1353 2 2 2 2 530 531 532
1354 2 2 2 2 536 607 756
1355 2 2 2 2 525 527 574
1356 2 2 2 2 536 535 607
1357 2 2 2 2 700 702 703
1358 2 2 2 2 537 536 538
1359 2 2 2 2 607 608 609
1360 2 2 2 2 622 629 642
1361 2 2 2 2 626 723 761
1362 2 2 2 2 611 758 765
1363 2 2 2 2 593 578 760
1364 2 2 2 2 581 584 588
1365 2 2 2 2 583 595 596
1366 2 2 2 2 533 532 534
1367 2 2 2 2 619 621 622
1368 2 2 2 2 618 617 619
1369 2 2 2 2 541 538 756
1370 2 2 2 2 608 535 758
1371 2 2 2 2 583 594 595
1372 2 2 2 2 637 610 757
1373 2 2 2 2 747 746 759
1374 2 2 2 2 628 747 759
1375 2 2 2 2 619 617 621
1376 2 2 2 2 563 567 763
1377 2 2 2 2 518 520 521
1378 2 2 2 2 535 532 758
1379 2 2 2 2 627 595 658
1380 2 2 2 2 610 612 757
1381 2 2 2 2 613 660 661
1382 2 2 2 2 22 663 754
1383 2 2 2 2 530 529 531
1384 2 2 2 2 648 715 777
1385 2 2 2 2 596 627 633
1386 2 2 2 2 770 629 774
1387 2 2 2 2 532 531 758
1388 2 2 2 2 522 524 525
1389 2 2 2 2 528 526 529
1390 2 2 2 2 528 529 530
1391 2 2 2 2 767 638 771
1392 2 2 2 2 567 587 763
1393 2 2 2 2 33 34 517
1394 2 2 2 2 632 529 762
1395 2 2 2 2 504 21 754
1396 2 2 2 2 527 528 571
1397 2 2 2 2 609 638 767
1398 2 2 2 2 525 574 766
1399 2 2 2 2 518 499 519
1400 2 2 2 2 527 526 528
1401 2 2 2 2 728 563 763
1402 2 2 2 2 594 582 630
1403 2 2 2 2 719 713 770
1404 2 2 2 2 525 526 527
1405 2 2 2 2 596 595 627
1406 2 2 2 2 525 524 526
1407 2 2 2 2 583 582 594
1408 2 2 2 2 692 690 694
1409 2 2 2 2 770 599 773
1410 2 2 2 2 621 768 774
1411 2 2 2 2 627 658 659
1412 2 2 2 2 568 767 771
1413 2 2 2 2 31 32 502
1414 2 2 2 2 642 629 773
1415 2 2 2 2 566 582 583
1416 2 2 2 2 524 523 566
1417 2 2 2 2 607 609 767
1418 2 2 2 2 531 632 765
1419 2 2 2 2 568 756 767
1420 2 2 2 2 756 607 767
1421 2 2 2 2 688 710 764
1422 2 2 2 2 690 688 764
1423 2 2 2 2 630 582 769
1424 2 2 2 2 621 617 768
1425 2 2 2 2 522 523 524
1426 2 2 2 2 629 770 773
1427 2 2 2 2 615 709 768
1428 2 2 2 2 522 520 523
1429 2 2 2 2 758 531 765
1430 2 2 2 2 521 520 522
1431 2 2 2 2 566 523 582
1432 2 2 2 2 524 566 762
1433 2 2 2 2 617 615 768
1434 2 2 2 2 526 524 762
1435 2 2 2 2 744 568 771
1436 2 2 2 2 638 644 771
1437 2 2 2 2 523 520 769
1438 2 2 2 2 499 35 662
1439 2 2 2 2 698 700 775
1440 2 2 2 2 529 526 762
1441 2 2 2 2 518 519 520
1442 2 2 2 2 629 621 774
1443 2 2 2 2 612 611 779
1444 2 2 2 2 583 596 776
1445 2 2 2 2 776 596 778
1446 2 2 2 2 594 630 631
1447 2 2 2 2 658 595 772
1448 2 2 2 2 762 566 776
1449 2 2 2 2 700 703 775
1450 2 2 2 2 632 762 776
1451 2 2 2 2 566 583 776
1452 2 2 2 2 694 690 764
1453 2 2 2 2 582 523 769
1454 2 2 2 2 520 519 769
1455 2 2 2 2 715 744 777
1456 2 2 2 2 744 771 777
1457 2 2 2 2 771 644 777
1458 2 2 2 2 595 594 772
1459 2 2 2 2 632 776 778
1460 2 2 2 2 596 633 778
1461 2 2 2 2 594 631 772
1462 2 2 2 2 765 632 778
1463 2 2 2 2 778 633 779
1464 2 2 2 2 611 765 779
1465 2 2 2 2 519 499 662
1466 2 2 2 2 765 778 779
1467 2 2 2 2 769 519 780
1468 2 2 2 2 630 769 780
1469 2 2 2 2 630 780 781
1470 2 2 2 2 519 662 780
1471 2 2 2 2 631 630 781
1472 2 2 2 2 80 81 782
1473 2 2 2 2 498 80 782
1474 2 2 2 2 626 761 783
1475 2 2 2 2 695 693 800
1476 2 2 2 2 133 134 784
1477 2 2 2 2 622 646 785
1478 2 2 2 2 620 619 785
1479 2 2 2 2 618 620 786
1480 2 2 2 2 134 493 784
1481 2 2 2 2 757 801 841
1482 2 2 2 2 656 703 821
1483 2 2 2 2 619 622 785
1484 2 2 2 2 645 618 786
1485 2 2 2 2 725 650 798
1486 2 2 2 2 786 620 832
1487 2 2 2 2 722 775 787
1488 2 2 2 2 493 721 787
1489 2 2 2 2 606 641 788
1490 2 2 2 2 593 760 788
1491 2 2 2 2 707 786 832
1492 2 2 2 2 694 696 789
1493 2 2 2 2 142 143 789
1494 2 2 2 2 603 747 790
1495 2 2 2 2 628 657 790
1496 2 2 2 2 530 533 791
1497 2 2 2 2 571 528 791
1498 2 2 2 2 570 702 802
1499 2 2 2 2 721 722 787
1500 2 2 2 2 623 650 795
1501 2 2 2 2 760 606 788
1502 2 2 2 2 612 739 801
1503 2 2 2 2 636 592 792
1504 2 2 2 2 589 603 792
1505 2 2 2 2 498 782 806
1506 2 2 2 2 78 79 793
1507 2 2 2 2 77 78 794
1508 2 2 2 2 674 676 822
1509 2 2 2 2 693 502 813
1510 2 2 2 2 675 503 814
1511 2 2 2 2 717 718 795
1512 2 2 2 2 627 659 796
1513 2 2 2 2 489 739 796
1514 2 2 2 2 731 491 803
1515 2 2 2 2 625 626 797
1516 2 2 2 2 636 736 804
1517 2 2 2 2 696 142 789
1518 2 2 2 2 747 628 790
1519 2 2 2 2 714 571 831
1520 2 2 2 2 574 687 805
1521 2 2 2 2 586 593 798
1522 2 2 2 2 650 598 798
1523 2 2 2 2 624 625 799
1524 2 2 2 2 517 518 800
1525 2 2 2 2 133 784 807
1526 2 2 2 2 571 714 817
1527 2 2 2 2 784 493 829
1528 2 2 2 2 528 530 791
1529 2 2 2 2 537 570 802
1530 2 2 2 2 533 534 802
1531 2 2 2 2 755 644 803
1532 2 2 2 2 634 636 804
1533 2 2 2 2 689 695 805
1534 2 2 2 2 639 647 806
1535 2 2 2 2 497 132 807
1536 2 2 2 2 784 653 807
1537 2 2 2 2 661 664 824
1538 2 2 2 2 588 679 822
1539 2 2 2 2 679 588 823
1540 2 2 2 2 513 30 808
1541 2 2 2 2 31 502 808
1542 2 2 2 2 120 503 810
1543 2 2 2 2 20 504 811
1544 2 2 2 2 68 501 809
1545 2 2 2 2 637 757 812
1546 2 2 2 2 503 121 814
1547 2 2 2 2 122 737 814
1548 2 2 2 2 33 517 813
1549 2 2 2 2 502 32 813
1550 2 2 2 2 738 740 801
1551 2 2 2 2 496 712 816
1552 2 2 2 2 574 527 817
1553 2 2 2 2 718 642 842
1554 2 2 2 2 712 509 818
1555 2 2 2 2 581 588 820
1556 2 2 2 2 783 761 819
1557 2 2 2 2 677 783 819
1558 2 2 2 2 655 656 821
1559 2 2 2 2 570 752 821
1560 2 2 2 2 664 506 824
1561 2 2 2 2 678 679 824
1562 2 2 2 2 679 673 822
1563 2 2 2 2 588 584 823
1564 2 2 2 2 613 661 823
1565 2 2 2 2 6 29 825
1566 2 2 2 2 39 3 826
1567 2 2 2 2 3 66 826
1568 2 2 2 2 667 515 826
1569 2 2 2 2 143 6 825
1570 2 2 2 2 28 5 827
1571 2 2 2 2 5 118 827
1572 2 2 2 2 2 18 828
1573 2 2 2 2 91 2 828
1574 2 2 2 2 706 514 828
1575 2 2 2 2 671 516 827
1576 2 2 2 2 642 773 842
1577 2 2 2 2 742 512 799
1578 2 2 2 2 699 714 831
1579 2 2 2 2 708 705 832
1580 2 2 2 2 512 732 833
1581 2 2 2 2 658 501 815
1582 2 2 2 2 593 788 835
1583 2 2 2 2 782 727 830
1584 2 2 2 2 714 686 817
1585 2 2 2 2 592 589 792
1586 2 2 2 2 79 498 793
1587 2 2 2 2 788 726 835
1588 2 2 2 2 603 790 834
1589 2 2 2 2 491 77 794
1590 2 2 2 2 490 741 797
1591 2 2 2 2 790 657 833
1592 2 2 2 2 508 717 795
1593 2 2 2 2 633 627 796
1594 2 2 2 2 501 69 815
1595 2 2 2 2 626 783 797
1596 2 2 2 2 736 497 804
1597 2 2 2 2 788 641 830
1598 2 2 2 2 766 574 805
1599 2 2 2 2 790 733 834
1600 2 2 2 2 667 67 809
1601 2 2 2 2 671 119 810
1602 2 2 2 2 706 19 811
1603 2 2 2 2 70 659 815
1604 2 2 2 2 739 738 801
1605 2 2 2 2 598 586 798
1606 2 2 2 2 657 624 799
1607 2 2 2 2 518 521 800
1608 2 2 2 2 733 790 833
1609 2 2 2 2 757 612 801
1610 2 2 2 2 642 718 816
1611 2 2 2 2 785 646 818
1612 2 2 2 2 534 537 802
1613 2 2 2 2 646 642 816
1614 2 2 2 2 69 70 815
1615 2 2 2 2 726 788 830
1616 2 2 2 2 708 785 818
1617 2 2 2 2 644 643 803
1618 2 2 2 2 656 654 829
1619 2 2 2 2 651 634 804
1620 2 2 2 2 687 689 805
1621 2 2 2 2 641 639 806
1622 2 2 2 2 132 133 807
1623 2 2 2 2 795 718 842
1624 2 2 2 2 30 31 808
1625 2 2 2 2 67 68 809
1626 2 2 2 2 119 120 810
1627 2 2 2 2 19 20 811
1628 2 2 2 2 668 667 809
1629 2 2 2 2 672 671 810
1630 2 2 2 2 707 706 811
1631 2 2 2 2 571 791 831
1632 2 2 2 2 804 497 840
1633 2 2 2 2 643 637 812
1634 2 2 2 2 798 593 835
1635 2 2 2 2 32 33 813
1636 2 2 2 2 121 122 814
1637 2 2 2 2 792 603 834
1638 2 2 2 2 787 656 829
1639 2 2 2 2 659 658 815
1640 2 2 2 2 651 804 840
1641 2 2 2 2 718 496 816
1642 2 2 2 2 789 143 825
1643 2 2 2 2 527 571 817
1644 2 2 2 2 786 504 839
1645 2 2 2 2 509 708 818
1646 2 2 2 2 761 587 819
1647 2 2 2 2 812 757 841
1648 2 2 2 2 819 587 820
1649 2 2 2 2 587 581 820
1650 2 2 2 2 664 661 836
1651 2 2 2 2 752 655 821
1652 2 2 2 2 726 725 835
1653 2 2 2 2 497 807 840
1654 2 2 2 2 673 674 822
1655 2 2 2 2 584 613 823
1656 2 2 2 2 506 678 824
1657 2 2 2 2 515 39 826
1658 2 2 2 2 516 28 827
1659 2 2 2 2 514 91 828
1660 2 2 2 2 29 513 825
1661 2 2 2 2 493 787 829
1662 2 2 2 2 727 726 830
1663 2 2 2 2 701 699 831
1664 2 2 2 2 791 701 831
1665 2 2 2 2 705 707 832
1666 2 2 2 2 732 733 833
1667 2 2 2 2 733 734 834
1668 2 2 2 2 838 645 839
1669 2 2 2 2 836 660 837
1670 2 2 2 2 660 711 837
1671 2 2 2 2 711 645 838
1672 2 2 2 2 661 660 836
1673 2 2 2 2 837 711 838
1674 2 2 2 2 500 664 836
1675 2 2 2 2 500 836 837
1676 2 2 2 2 663 500 837
1677 2 2 2 2 663 837 838
1678 2 2 2 2 754 663 838
1679 2 2 2 2 754 838 839
1680 2 2 2 2 740 510 841
1681 2 2 2 2 504 754 839
1682 2 2 2 2 653 651 840
1683 2 2 2 2 773 623 842
1684 2 2 2 2 513 789 825
1685 2 2 2 2 645 786 839
1686 2 2 2 2 623 795 842
1687 2 2 2 2 734 792 834
1688 2 2 2 2 725 798 835
1689 2 2 2 2 807 653 840
1690 2 2 2 2 510 812 841
$EndElements
